<svg width="28" height="35" viewBox="0 0 28 35" fill="none" xmlns="http://www.w3.org/2000/svg">
<path d="M23.18 12.3529H20V2.05882C20 0.926471 19.1 0 18 0H10C8.9 0 8 0.926471 8 2.05882V12.3529H4.82C3.04 12.3529 2.14 14.5765 3.4 15.8735L12.58 25.3235C13.36 26.1265 14.62 26.1265 15.4 25.3235L24.58 15.8735C25.84 14.5765 24.96 12.3529 23.18 12.3529ZM0 32.9412C0 34.0735 0.9 35 2 35H26C27.1 35 28 34.0735 28 32.9412C28 31.8088 27.1 30.8824 26 30.8824H2C0.9 30.8824 0 31.8088 0 32.9412Z" fill="#90CAF9"/>
</svg>
