<svg width="28" height="32" viewBox="0 0 28 32" fill="none" xmlns="http://www.w3.org/2000/svg">
<path d="M27.7366 32.0007H0V0.294922H19.0689L27.7366 7.84392V32.0007Z" fill="#90CAF9"/>
<path d="M0.884943 19.2852V9.10334H4.90199C5.67424 9.10334 6.33215 9.25083 6.87571 9.54581C7.41927 9.83748 7.83357 10.2435 8.11861 10.7638C8.40696 11.2809 8.55114 11.8775 8.55114 12.5536C8.55114 13.2298 8.4053 13.8263 8.11364 14.3434C7.82197 14.8604 7.39938 15.2631 6.84588 15.5515C6.29569 15.8398 5.6295 15.984 4.8473 15.984H2.28693V14.2589H4.49929C4.91359 14.2589 5.25497 14.1876 5.52344 14.0451C5.79522 13.8993 5.9974 13.6987 6.12997 13.4435C6.26586 13.185 6.33381 12.8884 6.33381 12.5536C6.33381 12.2156 6.26586 11.9206 6.12997 11.6687C5.9974 11.4135 5.79522 11.2163 5.52344 11.0771C5.25166 10.9345 4.90696 10.8633 4.48935 10.8633H3.03764V19.2852H0.884943ZM13.5588 19.2852H9.9494V9.10334H13.5886C14.6127 9.10334 15.4944 9.30717 16.2335 9.71484C16.9726 10.1192 17.541 10.7009 17.9387 11.4599C18.3398 12.2189 18.5403 13.127 18.5403 14.1843C18.5403 15.2449 18.3398 16.1564 17.9387 16.9187C17.541 17.681 16.9693 18.266 16.2235 18.6737C15.4811 19.0813 14.5929 19.2852 13.5588 19.2852ZM12.1021 17.4407H13.4693C14.1056 17.4407 14.6409 17.328 15.0751 17.1026C15.5126 16.8739 15.8407 16.521 16.0595 16.0437C16.2815 15.5631 16.3926 14.9433 16.3926 14.1843C16.3926 13.4319 16.2815 12.8171 16.0595 12.3398C15.8407 11.8626 15.5143 11.5112 15.0801 11.2859C14.6459 11.0605 14.1106 10.9478 13.4743 10.9478H12.1021V17.4407ZM20.1349 19.2852V9.10334H26.8764V10.8782H22.2876V13.3043H26.429V15.0792H22.2876V19.2852H20.1349Z" fill="black"/>
</svg>
