<svg width="132" height="60" viewBox="0 0 132 60" fill="none" xmlns="http://www.w3.org/2000/svg">
<path fill-rule="evenodd" clip-rule="evenodd" d="M19.0676 2H74.8006C83.5968 2 90.7275 9.13075 90.7275 17.927C90.7275 26.7232 83.5968 33.8539 74.8006 33.8539H19.0676C10.2714 33.8539 3.14062 26.7232 3.14062 17.927C3.14062 9.13075 10.2714 2 19.0676 2ZM1.14062 17.927C1.14062 8.02618 9.1668 0 19.0676 0H74.8006C84.7014 0 92.7275 8.02618 92.7275 17.927C92.7275 27.8278 84.7014 35.8539 74.8006 35.8539H19.0676C9.1668 35.8539 1.14062 27.8278 1.14062 17.927ZM107.789 1.68597C108.568 2.20307 109.222 2.91275 109.882 3.79367C110.258 4.29456 110.493 4.39505 110.945 4.58769L110.945 4.58773L110.945 4.58783C111.112 4.65907 111.309 4.74293 111.553 4.8643C112.505 5.33792 113.444 6.15191 114.598 8.31224C114.676 8.45723 114.716 8.61908 114.716 8.78346V29.4996H130.864C131.416 29.4996 131.864 29.9473 131.864 30.4996V51.9543C131.864 52.5066 131.416 52.9543 130.864 52.9543C130.312 52.9543 129.864 52.5066 129.864 51.9543C129.864 47.086 126.776 44.5319 123.674 44.3847C120.603 44.239 117.103 46.4522 116.343 52.088C116.276 52.5842 115.852 52.9543 115.352 52.9543H96.2044H94.0904C93.5538 52.9543 93.1128 52.5308 93.0912 51.9946C92.9613 48.7681 92.0683 46.5543 90.9037 45.1874C89.7495 43.8328 88.2918 43.2588 86.8547 43.3311C83.9967 43.4747 80.7193 46.2944 80.3692 52.0154C80.337 52.5424 79.9006 52.9535 79.3726 52.9543C78.8447 52.9552 78.407 52.5454 78.3732 52.0185C78.1596 48.6966 77.1981 46.5173 76.002 45.225C74.8202 43.9482 73.3525 43.4692 71.9135 43.6196C69.0196 43.922 65.9184 46.8734 65.9184 51.9543C65.9184 52.5066 65.4707 52.9543 64.9184 52.9543H36.3875C36.1103 52.9543 35.8455 52.8393 35.6564 52.6366C35.4673 52.434 35.3708 52.1619 35.3899 51.8853C35.7251 47.0374 32.8142 44.1958 29.9279 43.894C28.4784 43.7424 26.9572 44.2085 25.6974 45.4608C24.4287 46.7219 23.3704 48.8404 23.0219 52.0619C22.967 52.569 22.5392 52.9536 22.0292 52.9543C21.5191 52.9551 21.0902 52.5718 21.0338 52.0649C20.4458 46.7776 17.1689 44.236 14.2372 44.1551C12.7563 44.1142 11.2793 44.6829 10.1152 45.9283C8.94673 47.1783 8.04571 49.1657 7.86276 52.0183C7.829 52.5447 7.39224 52.9543 6.86481 52.9543H1.14062C0.58834 52.9543 0.140625 52.5066 0.140625 51.9543V39.8323C0.140625 39.28 0.58834 38.8323 1.14062 38.8323H94.0904C94.6427 38.8323 95.0904 39.28 95.0904 39.8323V50.9543H95.2044V2.19718C95.2044 1.68076 95.5977 1.24928 96.1119 1.20148C96.5615 1.15968 96.9935 1.11898 97.4088 1.07986C98.9979 0.930146 100.341 0.80363 101.48 0.727752C102.915 0.632244 104.094 0.611359 105.1 0.739365C106.128 0.870185 106.994 1.15841 107.789 1.68597ZM97.2044 50.9543H114.501C115.624 45.0542 119.687 42.1932 123.768 42.3869C126.115 42.4983 128.342 43.6204 129.864 45.5919V31.4996H113.716C113.164 31.4996 112.716 31.0519 112.716 30.4996V9.03749C111.755 7.29909 111.113 6.87909 110.662 6.65508C110.566 6.60746 110.455 6.56112 110.331 6.50968C109.787 6.28359 109.006 5.95897 108.282 4.99327C107.684 4.19482 107.19 3.6888 106.683 3.35237C106.192 3.0264 105.633 2.82325 104.848 2.72337C104.041 2.62067 103.019 2.62973 101.613 2.72333C100.504 2.79721 99.1975 2.92025 97.6132 3.06948L97.2044 3.10796V50.9543ZM93.0904 44.7786V40.8323H2.14062V50.9543H5.95256C6.28308 48.1999 7.25804 46.056 8.6541 44.5626C10.2088 42.8994 12.2374 42.0992 14.2924 42.1559C17.397 42.2415 20.3755 44.2421 21.9551 47.7905C22.5363 46.2377 23.3339 44.9901 24.2874 44.0423C25.9721 42.3677 28.0868 41.6905 30.1359 41.9048C33.9873 42.3076 37.3347 45.7795 37.4144 50.9543H63.9544C64.3438 45.6104 67.8336 42.035 71.7057 41.6304C73.7682 41.4149 75.8578 42.1249 77.4697 43.8665C78.266 44.7268 78.9308 45.8211 79.4263 47.1519C80.911 43.5861 83.7362 41.4852 86.7543 41.3336C88.8362 41.229 90.8852 42.0819 92.426 43.8903C92.6606 44.1656 92.8824 44.4617 93.0904 44.7786ZM17.6825 52.6827C17.6825 54.3154 17.1868 55.7157 16.482 56.6618C15.7772 57.6077 14.9599 57.9998 14.2309 57.9998C13.5019 57.9998 12.6846 57.6077 11.9798 56.6618C11.275 55.7157 10.7793 54.3154 10.7793 52.6827C10.7793 51.0499 11.275 49.6497 11.9798 48.7036C12.6846 47.7576 13.5019 47.3655 14.2309 47.3655C14.9599 47.3655 15.7772 47.7576 16.482 48.7036C17.1868 49.6497 17.6825 51.0499 17.6825 52.6827ZM19.6825 52.6827C19.6825 56.7238 17.2417 59.9998 14.2309 59.9998C11.2201 59.9998 8.7793 56.7238 8.7793 52.6827C8.7793 48.6415 11.2201 45.3655 14.2309 45.3655C17.2417 45.3655 19.6825 48.6415 19.6825 52.6827ZM31.7427 56.6618C32.4476 55.7157 32.9432 54.3154 32.9432 52.6827C32.9432 51.0499 32.4476 49.6497 31.7427 48.7036C31.0379 47.7576 30.2207 47.3655 29.4916 47.3655C28.7626 47.3655 27.9454 47.7576 27.2406 48.7036C26.5357 49.6497 26.04 51.0499 26.04 52.6827C26.04 54.3154 26.5357 55.7157 27.2406 56.6618C27.9454 57.6077 28.7626 57.9998 29.4916 57.9998C30.2207 57.9998 31.0379 57.6077 31.7427 56.6618ZM29.4916 59.9998C32.5025 59.9998 34.9432 56.7238 34.9432 52.6827C34.9432 48.6415 32.5025 45.3655 29.4916 45.3655C26.4808 45.3655 24.04 48.6415 24.04 52.6827C24.04 56.7238 26.4808 59.9998 29.4916 59.9998ZM74.2583 56.6618C74.9632 55.7157 75.4589 54.3154 75.4589 52.6827C75.4589 51.0499 74.9632 49.6497 74.2583 48.7036C73.5535 47.7576 72.7363 47.3655 72.0073 47.3655C71.2782 47.3655 70.461 47.7576 69.7562 48.7036C69.0513 49.6497 68.5557 51.0499 68.5557 52.6827C68.5557 54.3154 69.0513 55.7157 69.7562 56.6618C70.461 57.6077 71.2782 57.9998 72.0073 57.9998C72.7363 57.9998 73.5535 57.6077 74.2583 56.6618ZM72.0073 59.9998C75.0181 59.9998 77.4589 56.7238 77.4589 52.6827C77.4589 48.6415 75.0181 45.3655 72.0073 45.3655C68.9964 45.3655 66.5557 48.6415 66.5557 52.6827C66.5557 56.7238 68.9964 59.9998 72.0073 59.9998ZM88.979 56.6618C89.6839 55.7157 90.1796 54.3154 90.1796 52.6827C90.1796 51.0499 89.6839 49.6497 88.979 48.7036C88.2742 47.7576 87.457 47.3655 86.728 47.3655C85.9989 47.3655 85.1817 47.7576 84.4769 48.7036C83.772 49.6497 83.2764 51.0499 83.2764 52.6827C83.2764 54.3154 83.772 55.7157 84.4769 56.6618C85.1817 57.6077 85.9989 57.9998 86.728 57.9998C87.457 57.9998 88.2742 57.6077 88.979 56.6618ZM86.728 59.9998C89.7388 59.9998 92.1796 56.7238 92.1796 52.6827C92.1796 48.6415 89.7388 45.3655 86.728 45.3655C83.7171 45.3655 81.2764 48.6415 81.2764 52.6827C81.2764 56.7238 83.7171 59.9998 86.728 59.9998ZM126.71 52.6827C126.71 54.3154 126.214 55.7157 125.509 56.6618C124.805 57.6077 123.987 57.9998 123.258 57.9998C122.529 57.9998 121.712 57.6077 121.007 56.6618C120.302 55.7157 119.807 54.3154 119.807 52.6827C119.807 51.0499 120.302 49.6497 121.007 48.7036C121.712 47.7576 122.529 47.3655 123.258 47.3655C123.987 47.3655 124.805 47.7576 125.509 48.7036C126.214 49.6497 126.71 51.0499 126.71 52.6827ZM128.71 52.6827C128.71 56.7238 126.269 59.9998 123.258 59.9998C120.247 59.9998 117.807 56.7238 117.807 52.6827C117.807 48.6415 120.247 45.3655 123.258 45.3655C126.269 45.3655 128.71 48.6415 128.71 52.6827Z" fill="#878787"/>
</svg>
