<svg width="100" height="56" viewBox="0 0 100 56" fill="none" xmlns="http://www.w3.org/2000/svg">
<path fill-rule="evenodd" clip-rule="evenodd" d="M14.2507 2H45.0546V20.549H14.2507V2ZM12.2507 0H14.2507H45.0546H47.0546V2V20.549V22.549H45.0546H14.2507H12.2507V20.549V2V0ZM14.2507 26.5096H45.0546V45.0587H14.2507V26.5096ZM12.2507 24.5096H14.2507H45.0546H47.0546V26.5096V45.0587V47.0587H45.0546H14.2507H12.2507V45.0587V26.5096V24.5096ZM82.3136 26.5096H51.5096V45.0587H82.3136V26.5096ZM51.5096 24.5096H49.5096V26.5096V45.0587V47.0587H51.5096H82.3136H84.3136V45.0587V26.5096V24.5096H82.3136H51.5096ZM51.0193 2H81.8232V20.549H51.0193V2ZM49.0193 0H51.0193H81.8232H83.8232V2V20.549V22.549H81.8232H51.0193H49.0193V20.549V2V0ZM0 47.5503H100V50.9817H0V47.5503ZM3.95047 53.9401H14.6956V54.8813H3.95047V53.9401ZM2.95047 52.9401H3.95047H14.6956H15.6956V53.9401V54.8813V55.8813H14.6956H3.95047H2.95047V54.8813V53.9401V52.9401ZM52.4283 53.9401H41.6832V54.8813H52.4283V53.9401ZM41.6832 52.9401H40.6832V53.9401V54.8813V55.8813H41.6832H52.4283H53.4283V54.8813V53.9401V52.9401H52.4283H41.6832ZM84.8348 53.9401H95.5799V54.8813H84.8348V53.9401ZM83.8348 52.9401H84.8348H95.5799H96.5799V53.9401V54.8813V55.8813H95.5799H84.8348H83.8348V54.8813V53.9401V52.9401Z" fill="#878787"/>
</svg>
