<svg width="15" height="14" viewBox="0 0 15 14" fill="none" xmlns="http://www.w3.org/2000/svg">
<path d="M6.19711 0.554688C3.26088 0.554688 0.8125 2.57392 0.8125 5.13161C0.8125 6.44007 1.52865 7.58053 2.54581 8.413C2.48013 8.85532 2.3003 9.2729 2.02404 9.62453C1.9113 9.76884 1.79348 9.90911 1.67081 10.0451C1.60731 10.112 1.55083 10.1852 1.50227 10.2637C1.47158 10.3138 1.42365 10.3698 1.40158 10.4828C1.37896 10.5954 1.40965 10.7806 1.50227 10.9201L1.56958 11.038L1.70419 11.1053C2.17535 11.3406 2.68419 11.2991 3.15158 11.1726C3.61842 11.0455 4.0675 10.828 4.49773 10.6002C4.92742 10.373 5.33612 10.135 5.65865 9.96107C5.70388 9.93684 5.73296 9.93092 5.77658 9.91046C6.62573 11.0778 8.18081 11.8624 9.91573 11.8624C9.93242 11.8645 9.94804 11.8624 9.96635 11.8624C10.6663 11.8624 12.9279 14.1745 14.274 13.2591C14.3279 13.0443 13.0905 12.5053 13.0286 10.9034C14.0823 10.1587 14.7624 9.05107 14.7624 7.82392C14.7624 6.00823 13.3215 4.50807 11.397 3.97069C10.788 1.98915 8.67081 0.554688 6.19711 0.554688ZM6.19711 1.63161C8.6455 1.63161 10.5048 3.27392 10.5048 5.13161C10.5048 6.9893 8.6455 8.63161 6.19711 8.63161C5.75988 8.63161 5.50896 8.81038 5.15358 9.00207C4.79819 9.19323 4.39058 9.43069 3.99265 9.64123C3.64804 9.82323 3.31958 9.96323 3.01696 10.0618C3.3115 9.63638 3.61896 9.07692 3.67281 8.29507L3.69004 7.99192L3.4375 7.80723C2.47796 7.13469 1.88942 6.16707 1.88942 5.13161C1.88942 3.27392 3.74873 1.63161 6.19711 1.63161Z" fill="black"/>
</svg>
