<svg width="16" height="19" viewBox="0 0 16 19" fill="none" xmlns="http://www.w3.org/2000/svg">
<path d="M14.8612 8.65479C14.8612 14.0336 9.35198 17.3474 8.20709 17.9786C8.14367 18.0136 8.07241 18.0319 7.99998 18.0319C7.92755 18.0319 7.85629 18.0136 7.79287 17.9786C6.64712 17.3474 1.13965 14.0336 1.13965 8.65479C1.13965 4.36682 3.71243 1.36523 8.00041 1.36523C12.2884 1.36523 14.8612 4.36682 14.8612 8.65479Z" stroke="white" stroke-width="1.4" stroke-linecap="round" stroke-linejoin="round"/>
<path d="M4.57005 8.22599C4.57005 9.13579 4.93147 10.0083 5.57479 10.6516C6.21811 11.295 7.09064 11.6564 8.00043 11.6564C8.91023 11.6564 9.78276 11.295 10.4261 10.6516C11.0694 10.0083 11.4308 9.13579 11.4308 8.22599C11.4308 7.3162 11.0694 6.44367 10.4261 5.80035C9.78276 5.15703 8.91023 4.79561 8.00043 4.79561C7.09064 4.79561 6.21811 5.15703 5.57479 5.80035C4.93147 6.44367 4.57005 7.3162 4.57005 8.22599Z" stroke="white" stroke-width="1.4" stroke-linecap="round" stroke-linejoin="round"/>
</svg>
