<svg width="187" height="181" viewBox="0 0 187 181" fill="none" xmlns="http://www.w3.org/2000/svg">
<path d="M82 22.6316L95.5 43L109 22.6316L95.5 0L82 22.6316Z" fill="white"/>
<path d="M69.7655 21.9273L47.2183 12.5069L47.3259 36.9427L71.1318 48.244L69.7655 21.9273Z" fill="white"/>
<path d="M37.5933 45.1546L13.2966 47.7611L25.1625 69.1228L51.4682 67.5583L37.5933 45.1546Z" fill="white"/>
<path d="M20.3635 77.5543L0.331853 91.5492L21.0248 104.546L43.319 90.4959L20.3635 77.5543Z" fill="white"/>
<path d="M24.31 113.035L13.607 135.002L38.0085 136.302L50.6617 113.186L24.31 113.035Z" fill="white"/>
<path d="M46.6992 142.525L46.0497 166.953L68.8003 158.035L70.7498 131.755L46.6992 142.525Z" fill="white"/>
<path d="M82.0697 159.715L95.6324 180.042L109.07 159.632L95.4999 137.042L82.0697 159.715Z" fill="white"/>
<path d="M121.909 156.592L144.303 166.371L144.586 141.936L120.963 130.256L121.909 156.592Z" fill="white"/>
<path d="M152.886 136.486L177.236 134.436L165.862 112.809L139.527 113.771L152.886 136.486Z" fill="white"/>
<path d="M164.587 104.369L185.763 92.1747L166.283 77.4221L142.848 89.4739L164.587 104.369Z" fill="white"/>
<path d="M162.703 69.9726L175.759 49.3168L151.648 45.3392L136.528 66.9216L162.703 69.9726Z" fill="white"/>
<path d="M143.183 39.5238L144.682 15.1337L121.635 23.2554L118.773 49.4517L143.183 39.5238Z" fill="white"/>
</svg>
