<svg width="142" height="140" viewBox="0 0 142 140" fill="none" xmlns="http://www.w3.org/2000/svg">
<path d="M35.999 28.0434C42.3462 32.0476 47.0608 35.6636 48.7127 37.2772L40.8604 47.3819L37.2119 44.0893L34.1937 40.9418L32.308 38.7558L29.9201 35.7535C27.5322 32.7511 22.3223 25.3954 20 20.5059C22.5858 21.5415 29.6517 24.0392 35.999 28.0434Z" fill="#FFDF1A"/>
<path d="M17.674 51.9337C25.1508 52.5805 30.9988 53.6312 33.2068 54.3073L30.8641 66.8881L26.1117 65.6358L21.9861 64.2233L19.3077 63.1458L15.8088 61.5731C12.3098 60.0005 4.30634 55.8539 0 52.5742C2.77275 52.3085 10.1972 51.2869 17.674 51.9337Z" fill="#FFDF1A"/>
<path d="M15.1018 79.4336C21.8601 76.1707 27.4243 74.0869 29.6679 73.5404L34.0798 85.5528L29.3545 86.9036L25.0862 87.7966L22.2332 88.2382L18.4218 88.6734C14.6104 89.1086 5.6118 89.6317 0.234375 89.0117C2.48242 87.367 8.34352 82.6965 15.1018 79.4336Z" fill="#FFDF1A"/>
<path d="M27.4141 105.052C32.1554 99.2343 36.3141 94.9907 38.1154 93.5457L47.1981 102.561L43.489 105.785L40.0002 108.401L37.6025 110.009L34.3338 112.017C31.0651 114.025 23.1342 118.309 18 120.023C19.3403 117.582 22.6728 110.869 27.4141 105.052Z" fill="#FFDF1A"/>
<path d="M53.7995 122.294C54.6388 114.836 55.8398 109.017 56.5726 106.827L69.0888 109.494L67.7145 114.212L66.1961 118.3L65.0499 120.95L63.3877 124.407C61.7254 127.864 57.374 135.758 53.9844 139.979C53.7902 137.2 52.9602 129.752 53.7995 122.294Z" fill="#FFDF1A"/>
<path d="M85.5649 124.04C81.9893 117.442 79.6475 111.981 78.9966 109.766L90.7895 104.797L92.3599 109.454L93.4516 113.676L94.0262 116.505L94.6393 120.292C95.2523 124.079 96.1959 133.043 95.8281 138.443C94.08 136.275 89.1404 130.639 85.5649 124.04Z" fill="#FFDF1A"/>
<path d="M111.816 110.474C105.636 106.216 101.072 102.412 99.4871 100.732L107.743 90.9544L111.255 94.3923L114.143 97.6596L115.938 99.9202L118.202 103.017C120.467 106.114 125.374 113.675 127.496 118.654C124.954 117.515 117.996 114.732 111.816 110.474Z" fill="#FFDF1A"/>
<path d="M122.613 87.5276C115.219 86.2432 109.483 84.6958 107.341 83.8332L110.752 71.4991L115.379 73.1536L119.369 74.9141L121.945 76.2169L125.297 78.0833C128.648 79.9496 136.268 84.7661 140.277 88.4023C137.492 88.4297 130.007 88.8121 122.613 87.5276Z" fill="#FFDF1A"/>
<path d="M125.968 61.2195C118.978 63.9507 113.27 65.5985 110.991 65.97L107.52 53.6527L112.335 52.6709L116.66 52.1103L119.538 51.8903L123.372 51.7508C127.206 51.6113 136.218 51.7848 141.531 52.8184C139.163 54.2845 132.959 58.4884 125.968 61.2195Z" fill="#FFDF1A"/>
<path d="M117.153 34.9944C112.347 40.7583 108.141 44.955 106.324 46.3798L97.3426 37.2637L101.088 34.0812L104.605 31.5043L107.021 29.9233L110.312 27.9521C113.603 25.9809 121.581 21.7863 126.734 20.1289C125.367 22.5555 121.959 29.2305 117.153 34.9944Z" fill="#FFDF1A"/>
<path d="M93.2472 18.5873C91.5508 25.8978 89.6847 31.5388 88.7035 33.6292L76.5797 29.533L78.4907 25.0051L80.4717 21.1203L81.9168 18.621L83.9678 15.3793C86.0189 12.1375 91.2543 4.79994 95.1094 1C94.9808 3.78249 94.9435 11.2768 93.2472 18.5873Z" fill="#FFDF1A"/>
<path d="M62.9555 14.4274C66.5153 21.0342 68.8441 26.5004 69.4897 28.7175L57.685 33.6585L56.1257 28.9978L55.044 24.7733L54.4761 21.9428L53.8721 18.1545C53.2681 14.3662 52.3459 5.39965 52.7266 0C54.4695 2.1728 59.3957 7.82071 62.9555 14.4274Z" fill="#FFDF1A"/>
<circle cx="71.5" cy="68.5" r="42.5" fill="#FFDF1A"/>
</svg>
