<svg width="44" height="44" viewBox="0 0 44 44" fill="none" xmlns="http://www.w3.org/2000/svg">
<path d="M24.3059 12.9446L32.4059 21.0446C32.5316 21.17 32.6314 21.319 32.6994 21.483C32.7675 21.647 32.8025 21.8228 32.8025 22.0004C32.8025 22.178 32.7675 22.3538 32.6994 22.5178C32.6314 22.6818 32.5316 22.8308 32.4059 22.9562L24.3059 31.0562C24.0524 31.3097 23.7086 31.4521 23.3501 31.4521C22.9916 31.4521 22.6478 31.3097 22.3943 31.0562C22.1408 30.8027 21.9984 30.4589 21.9984 30.1004C21.9984 29.7419 22.1408 29.3981 22.3943 29.1446L28.1912 23.3504L12.5501 23.3504C12.1921 23.3504 11.8487 23.2082 11.5955 22.955C11.3423 22.7018 11.2001 22.3584 11.2001 22.0004C11.2001 21.6423 11.3423 21.299 11.5955 21.0458C11.8487 20.7926 12.1921 20.6504 12.5501 20.6504L28.1912 20.6504L22.3943 14.8562C22.1408 14.6027 21.9984 14.2589 21.9984 13.9004C21.9984 13.5419 22.1408 13.1981 22.3943 12.9446C22.6478 12.6911 22.9916 12.5487 23.3501 12.5487C23.7086 12.5487 24.0524 12.6911 24.3059 12.9446ZM43.6001 22.0004C43.6001 16.2717 41.3244 10.7777 37.2736 6.72689C33.2228 2.6761 27.7288 0.40039 22.0001 0.40039C16.2714 0.400389 10.7774 2.6761 6.72659 6.72688C2.67581 10.7777 0.4001 16.2717 0.4001 22.0004C0.4001 27.7291 2.67581 33.2231 6.72659 37.2739C10.7774 41.3247 16.2714 43.6004 22.0001 43.6004C27.7288 43.6004 33.2228 41.3247 37.2736 37.2739C41.3244 33.2231 43.6001 27.7291 43.6001 22.0004ZM22.0001 3.10039C24.4821 3.10039 26.9398 3.58925 29.2328 4.53907C31.5259 5.48888 33.6094 6.88104 35.3644 8.63607C37.1194 10.3911 38.5116 12.4746 39.4614 14.7677C40.4112 17.0607 40.9001 19.5184 40.9001 22.0004C40.9001 24.4824 40.4112 26.9401 39.4614 29.2331C38.5116 31.5262 37.1194 33.6097 35.3644 35.3647C33.6094 37.1197 31.5259 38.5119 29.2328 39.4617C26.9398 40.4115 24.4821 40.9004 22.0001 40.9004C16.9875 40.9004 12.1802 38.9091 8.63578 35.3647C5.09135 31.8203 3.1001 27.013 3.1001 22.0004C3.1001 16.9878 5.09135 12.1805 8.63578 8.63607C12.1802 5.09163 16.9875 3.10039 22.0001 3.10039Z" fill="#898989"/>
</svg>
