<svg width="15" height="14" viewBox="0 0 15 14" fill="none" xmlns="http://www.w3.org/2000/svg">
<path d="M6.19907 0.555557C3.26284 0.555557 0.814453 2.57479 0.814453 5.13248C0.814453 6.44094 1.53061 7.5814 2.54776 8.41387C2.48208 8.85619 2.30225 9.27377 2.02599 9.6254C1.91325 9.76971 1.79543 9.90998 1.67276 10.0459C1.60926 10.1129 1.55278 10.1861 1.50422 10.2646C1.47353 10.3146 1.42561 10.3706 1.40353 10.4837C1.38091 10.5962 1.41161 10.7815 1.50422 10.9209L1.57153 11.0389L1.70615 11.1062C2.1773 11.3415 2.68615 11.3 3.15353 11.1735C3.62038 11.0464 4.06945 10.8289 4.49968 10.6011C4.92938 10.3739 5.33807 10.1359 5.66061 9.96194C5.70584 9.93771 5.73491 9.93179 5.77853 9.91133C6.62768 11.0787 8.18276 11.8632 9.91768 11.8632C9.93438 11.8654 9.94999 11.8632 9.9683 11.8632C10.6683 11.8632 12.9298 14.1754 14.276 13.26C14.3298 13.0452 13.0925 12.5062 13.0305 10.9043C14.0843 10.1596 14.7644 9.05194 14.7644 7.82479C14.7644 6.0091 13.3235 4.50894 11.399 3.97156C10.79 1.99002 8.67276 0.555557 6.19907 0.555557ZM6.19907 1.63248C8.64745 1.63248 10.5068 3.27479 10.5068 5.13248C10.5068 6.99017 8.64745 8.63248 6.19907 8.63248C5.76184 8.63248 5.51091 8.81125 5.15553 9.00294C4.80015 9.1941 4.39253 9.43156 3.99461 9.6421C3.64999 9.8241 3.32153 9.9641 3.01891 10.0626C3.31345 9.63725 3.62091 9.07779 3.67476 8.29594L3.69199 7.99279L3.43945 7.8081C2.47991 7.13556 1.89138 6.16794 1.89138 5.13248C1.89138 3.27479 3.75068 1.63248 6.19907 1.63248Z" fill="black"/>
</svg>
