<svg width="101" height="87" viewBox="0 0 101 87" fill="none" xmlns="http://www.w3.org/2000/svg">
<mask id="path-1-inside-1_781_14209" fill="white">
<path fill-rule="evenodd" clip-rule="evenodd" d="M5 17H95.0773V48.9707H5V17ZM3 15H5H95.0773H97.0773V17V48.9707V50.9707H95.0773H5H3V48.9707V17V15ZM12.9936 70.0003C15.6387 70.0003 17.9314 67.7337 17.9314 64.7506C17.9314 61.7674 15.6387 59.5008 12.9936 59.5008C10.3484 59.5008 8.0557 61.7674 8.0557 64.7506C8.0557 67.7337 10.3484 70.0003 12.9936 70.0003ZM12.9936 72.0003C16.8054 72.0003 19.8993 68.7879 19.9312 64.8125C19.963 68.7879 23.0569 72.0003 26.8688 72.0003C30.7004 72.0003 33.8066 68.7545 33.8066 64.7506C33.8066 60.7467 30.7004 57.5008 26.8688 57.5008C23.0569 57.5008 19.963 60.7132 19.9312 64.6886C19.8993 60.7132 16.8054 57.5008 12.9936 57.5008C9.16189 57.5008 6.0557 60.7467 6.0557 64.7506C6.0557 68.7545 9.16189 72.0003 12.9936 72.0003ZM26.8688 70.0003C29.5139 70.0003 31.8066 67.7337 31.8066 64.7506C31.8066 61.7674 29.5139 59.5008 26.8688 59.5008C24.2236 59.5008 21.9309 61.7674 21.9309 64.7506C21.9309 67.7337 24.2236 70.0003 26.8688 70.0003ZM79.4015 64.7506C79.4015 67.7337 77.1088 70.0003 74.4636 70.0003C71.8185 70.0003 69.5258 67.7337 69.5258 64.7506C69.5258 61.7674 71.8185 59.5008 74.4636 59.5008C77.1088 59.5008 79.4015 61.7674 79.4015 64.7506ZM74.4636 72.0003C78.2754 72.0003 81.3692 68.7881 81.4012 64.8129C81.4333 68.7881 84.5271 72.0003 88.3388 72.0003C92.1705 72.0003 95.2767 68.7545 95.2767 64.7506C95.2767 60.7467 92.1705 57.5008 88.3388 57.5008C84.5271 57.5008 81.4333 60.713 81.4012 64.6883C81.3692 60.713 78.2754 57.5008 74.4636 57.5008C70.632 57.5008 67.5258 60.7467 67.5258 64.7506C67.5258 68.7545 70.632 72.0003 74.4636 72.0003ZM88.3388 70.0003C90.984 70.0003 93.2767 67.7337 93.2767 64.7506C93.2767 61.7674 90.984 59.5008 88.3388 59.5008C85.6937 59.5008 83.401 61.7674 83.401 64.7506C83.401 67.7337 85.6937 70.0003 88.3388 70.0003Z"/>
</mask>
<path fill-rule="evenodd" clip-rule="evenodd" d="M5 17H95.0773V48.9707H5V17ZM3 15H5H95.0773H97.0773V17V48.9707V50.9707H95.0773H5H3V48.9707V17V15ZM12.9936 70.0003C15.6387 70.0003 17.9314 67.7337 17.9314 64.7506C17.9314 61.7674 15.6387 59.5008 12.9936 59.5008C10.3484 59.5008 8.0557 61.7674 8.0557 64.7506C8.0557 67.7337 10.3484 70.0003 12.9936 70.0003ZM12.9936 72.0003C16.8054 72.0003 19.8993 68.7879 19.9312 64.8125C19.963 68.7879 23.0569 72.0003 26.8688 72.0003C30.7004 72.0003 33.8066 68.7545 33.8066 64.7506C33.8066 60.7467 30.7004 57.5008 26.8688 57.5008C23.0569 57.5008 19.963 60.7132 19.9312 64.6886C19.8993 60.7132 16.8054 57.5008 12.9936 57.5008C9.16189 57.5008 6.0557 60.7467 6.0557 64.7506C6.0557 68.7545 9.16189 72.0003 12.9936 72.0003ZM26.8688 70.0003C29.5139 70.0003 31.8066 67.7337 31.8066 64.7506C31.8066 61.7674 29.5139 59.5008 26.8688 59.5008C24.2236 59.5008 21.9309 61.7674 21.9309 64.7506C21.9309 67.7337 24.2236 70.0003 26.8688 70.0003ZM79.4015 64.7506C79.4015 67.7337 77.1088 70.0003 74.4636 70.0003C71.8185 70.0003 69.5258 67.7337 69.5258 64.7506C69.5258 61.7674 71.8185 59.5008 74.4636 59.5008C77.1088 59.5008 79.4015 61.7674 79.4015 64.7506ZM74.4636 72.0003C78.2754 72.0003 81.3692 68.7881 81.4012 64.8129C81.4333 68.7881 84.5271 72.0003 88.3388 72.0003C92.1705 72.0003 95.2767 68.7545 95.2767 64.7506C95.2767 60.7467 92.1705 57.5008 88.3388 57.5008C84.5271 57.5008 81.4333 60.713 81.4012 64.6883C81.3692 60.713 78.2754 57.5008 74.4636 57.5008C70.632 57.5008 67.5258 60.7467 67.5258 64.7506C67.5258 68.7545 70.632 72.0003 74.4636 72.0003ZM88.3388 70.0003C90.984 70.0003 93.2767 67.7337 93.2767 64.7506C93.2767 61.7674 90.984 59.5008 88.3388 59.5008C85.6937 59.5008 83.401 61.7674 83.401 64.7506C83.401 67.7337 85.6937 70.0003 88.3388 70.0003Z" fill="#D9D9D9"/>
<path d="M95.0773 17H97.0773V15H95.0773V17ZM5 17V15H3V17H5ZM95.0773 48.9707V50.9707H97.0773V48.9707H95.0773ZM5 48.9707H3V50.9707H5V48.9707ZM3 15V13H1V15H3ZM97.0773 15H99.0773V13H97.0773V15ZM97.0773 50.9707V52.9707H99.0773V50.9707H97.0773ZM3 50.9707H1V52.9707H3V50.9707ZM19.9312 64.8125L21.9311 64.7965H17.9312L19.9312 64.8125ZM19.9312 64.6886L17.9312 64.7047H21.9311L19.9312 64.6886ZM81.4012 64.8129L83.4012 64.7968H79.4013L81.4012 64.8129ZM81.4012 64.6883L79.4013 64.7044H83.4012L81.4012 64.6883ZM95.0773 15H5V19H95.0773V15ZM97.0773 48.9707V17H93.0773V48.9707H97.0773ZM5 50.9707H95.0773V46.9707H5V50.9707ZM3 17V48.9707H7V17H3ZM5 13H3V17H5V13ZM95.0773 13H5V17H95.0773V13ZM97.0773 13H95.0773V17H97.0773V13ZM99.0773 17V15H95.0773V17H99.0773ZM99.0773 48.9707V17H95.0773V48.9707H99.0773ZM99.0773 50.9707V48.9707H95.0773V50.9707H99.0773ZM95.0773 52.9707H97.0773V48.9707H95.0773V52.9707ZM5 52.9707H95.0773V48.9707H5V52.9707ZM3 52.9707H5V48.9707H3V52.9707ZM1 48.9707V50.9707H5V48.9707H1ZM1 17V48.9707H5V17H1ZM1 15V17H5V15H1ZM15.9314 64.7506C15.9314 66.7029 14.4618 68.0003 12.9936 68.0003V72.0003C16.8156 72.0003 19.9314 68.7645 19.9314 64.7506H15.9314ZM12.9936 61.5008C14.4618 61.5008 15.9314 62.7982 15.9314 64.7506H19.9314C19.9314 60.7366 16.8156 57.5008 12.9936 57.5008V61.5008ZM10.0557 64.7506C10.0557 62.7982 11.5254 61.5008 12.9936 61.5008V57.5008C9.1715 57.5008 6.0557 60.7366 6.0557 64.7506H10.0557ZM12.9936 68.0003C11.5254 68.0003 10.0557 66.7029 10.0557 64.7506H6.0557C6.0557 68.7645 9.1715 72.0003 12.9936 72.0003V68.0003ZM17.9312 64.7965C17.9075 67.7574 15.6252 70.0003 12.9936 70.0003V74.0003C17.9857 74.0003 21.8911 69.8185 21.9311 64.8285L17.9312 64.7965ZM26.8688 70.0003C24.2371 70.0003 21.9548 67.7574 21.9311 64.7965L17.9312 64.8285C17.9712 69.8185 21.8767 74.0003 26.8688 74.0003V70.0003ZM31.8066 64.7506C31.8066 67.7337 29.5139 70.0003 26.8688 70.0003V74.0003C31.887 74.0003 35.8066 69.7753 35.8066 64.7506H31.8066ZM26.8688 59.5008C29.5139 59.5008 31.8066 61.7674 31.8066 64.7506H35.8066C35.8066 59.7259 31.887 55.5008 26.8688 55.5008V59.5008ZM21.9311 64.7047C21.9548 61.7438 24.2371 59.5008 26.8688 59.5008V55.5008C21.8767 55.5008 17.9712 59.6827 17.9312 64.6726L21.9311 64.7047ZM12.9936 59.5008C15.6252 59.5008 17.9075 61.7438 17.9312 64.7047L21.9311 64.6726C21.8911 59.6827 17.9857 55.5008 12.9936 55.5008V59.5008ZM8.0557 64.7506C8.0557 61.7674 10.3484 59.5008 12.9936 59.5008V55.5008C7.97534 55.5008 4.0557 59.7259 4.0557 64.7506H8.0557ZM12.9936 70.0003C10.3484 70.0003 8.0557 67.7337 8.0557 64.7506H4.0557C4.0557 69.7753 7.97534 74.0003 12.9936 74.0003V70.0003ZM29.8066 64.7506C29.8066 66.7029 28.337 68.0003 26.8688 68.0003V72.0003C30.6908 72.0003 33.8066 68.7645 33.8066 64.7506H29.8066ZM26.8688 61.5008C28.337 61.5008 29.8066 62.7982 29.8066 64.7506H33.8066C33.8066 60.7366 30.6908 57.5008 26.8688 57.5008V61.5008ZM23.9309 64.7506C23.9309 62.7982 25.4006 61.5008 26.8688 61.5008V57.5008C23.0467 57.5008 19.9309 60.7366 19.9309 64.7506H23.9309ZM26.8688 68.0003C25.4006 68.0003 23.9309 66.7029 23.9309 64.7506H19.9309C19.9309 68.7645 23.0467 72.0003 26.8688 72.0003V68.0003ZM74.4636 72.0003C78.2857 72.0003 81.4015 68.7645 81.4015 64.7506H77.4015C77.4015 66.7029 75.9318 68.0003 74.4636 68.0003V72.0003ZM67.5258 64.7506C67.5258 68.7645 70.6416 72.0003 74.4636 72.0003V68.0003C72.9954 68.0003 71.5258 66.7029 71.5258 64.7506H67.5258ZM74.4636 57.5008C70.6416 57.5008 67.5258 60.7366 67.5258 64.7506H71.5258C71.5258 62.7982 72.9954 61.5008 74.4636 61.5008V57.5008ZM81.4015 64.7506C81.4015 60.7366 78.2857 57.5008 74.4636 57.5008V61.5008C75.9318 61.5008 77.4015 62.7982 77.4015 64.7506H81.4015ZM79.4013 64.7968C79.3774 67.7575 77.0952 70.0003 74.4636 70.0003V74.0003C79.4556 74.0003 83.361 69.8187 83.4012 64.829L79.4013 64.7968ZM88.3388 70.0003C85.7072 70.0003 83.425 67.7575 83.4012 64.7968L79.4013 64.829C79.4415 69.8187 83.3469 74.0003 88.3388 74.0003V70.0003ZM93.2767 64.7506C93.2767 67.7337 90.984 70.0003 88.3388 70.0003V74.0003C93.3571 74.0003 97.2767 69.7753 97.2767 64.7506H93.2767ZM88.3388 59.5008C90.984 59.5008 93.2767 61.7674 93.2767 64.7506H97.2767C97.2767 59.7259 93.3571 55.5008 88.3388 55.5008V59.5008ZM83.4012 64.7044C83.425 61.7437 85.7072 59.5008 88.3388 59.5008V55.5008C83.3469 55.5008 79.4415 59.6824 79.4013 64.6722L83.4012 64.7044ZM74.4636 59.5008C77.0952 59.5008 79.3774 61.7437 79.4013 64.7044L83.4012 64.6722C83.361 59.6824 79.4556 55.5008 74.4636 55.5008V59.5008ZM69.5258 64.7506C69.5258 61.7674 71.8185 59.5008 74.4636 59.5008V55.5008C69.4454 55.5008 65.5258 59.7259 65.5258 64.7506H69.5258ZM74.4636 70.0003C71.8185 70.0003 69.5258 67.7337 69.5258 64.7506H65.5258C65.5258 69.7753 69.4454 74.0003 74.4636 74.0003V70.0003ZM91.2767 64.7506C91.2767 66.7029 89.807 68.0003 88.3388 68.0003V72.0003C92.1609 72.0003 95.2767 68.7645 95.2767 64.7506H91.2767ZM88.3388 61.5008C89.807 61.5008 91.2767 62.7982 91.2767 64.7506H95.2767C95.2767 60.7366 92.1609 57.5008 88.3388 57.5008V61.5008ZM85.401 64.7506C85.401 62.7982 86.8706 61.5008 88.3388 61.5008V57.5008C84.5168 57.5008 81.401 60.7366 81.401 64.7506H85.401ZM88.3388 68.0003C86.8706 68.0003 85.401 66.7029 85.401 64.7506H81.401C81.401 68.7645 84.5168 72.0003 88.3388 72.0003V68.0003Z" fill="#777777" mask="url(#path-1-inside-1_781_14209)"/>
<rect x="4" y="53" width="92" height="4" fill="#FFFDFD" stroke="#777777" stroke-width="2"/>
</svg>
