<svg width="151" height="100" viewBox="0 0 151 100" fill="none" xmlns="http://www.w3.org/2000/svg">
<path fill-rule="evenodd" clip-rule="evenodd" d="M106.603 15C107.021 15 107.359 15.6874 107.359 16.5354V19.3047H110.789C111.206 19.3047 111.544 19.9922 111.544 20.8402C111.544 21.6881 111.206 22.3756 110.789 22.3756H110.266L111.292 32.9037H112.473C112.89 32.9037 113.228 33.5911 113.228 34.4391C113.228 35.2871 112.89 35.9746 112.473 35.9746H111.591L112.656 46.894H113.449V36.298C113.449 35.45 113.788 34.7626 114.205 34.7626H118.405V33.2651C118.405 32.4171 118.743 31.7297 119.16 31.7297C119.577 31.7297 119.916 32.4171 119.916 33.2651V34.8326C120.222 35.028 120.445 35.6102 120.445 36.298V46.894H123.827C124.244 46.894 124.582 47.5815 124.582 48.4295V52.9129C124.582 53.0651 124.571 53.2122 124.551 53.3511H128.796V41.6789C128.796 40.8309 129.135 40.1435 129.552 40.1435C129.969 40.1435 130.307 40.8309 130.307 41.6789V53.3511H133.256C133.48 53.3511 133.692 53.5527 133.836 53.9015C133.98 54.2503 134.04 54.7105 134 55.1581L133.39 62.0584H135.917V59.3869C135.917 58.5389 136.255 57.8515 136.672 57.8515C137.09 57.8515 137.428 58.5389 137.428 59.3869V62.0584H140.858C141.275 62.0584 141.613 62.7458 141.613 63.5938V67.7327H143.745C144.02 67.7327 144.274 68.0383 144.407 68.53C144.54 69.0217 144.53 69.6212 144.381 70.0939L141.495 79.2904C141.356 79.7324 141.116 80 140.858 80H19.0425C18.8156 80 18.6007 79.7927 18.4572 79.4355L6.67021 50.0851C6.48573 49.6258 6.44788 48.9916 6.57297 48.4559C6.69806 47.9202 6.96374 47.5788 7.25548 47.5788H26.4883L40.319 67.7327H48.0192V63.5938C48.0192 62.7458 48.3575 62.0584 48.7747 62.0584H90.7758L90.1292 55.1745C90.087 54.7249 90.1456 54.2606 90.2891 53.9079C90.4327 53.5553 90.6461 53.3511 90.8713 53.3511H91.9921V50.6797C91.9921 49.8317 92.3303 49.1442 92.7476 49.1442C93.1648 49.1442 93.503 49.8317 93.503 50.6797V53.3511H95.3117V48.0082H95.0569C94.6396 48.0082 94.3014 47.3208 94.3014 46.4728V42.0702C94.3014 41.2222 94.6396 40.5348 95.0569 40.5348H102.177C102.594 40.5348 102.933 41.2222 102.933 42.0702V44.9374H104.969L105.615 35.9746H104.823C104.406 35.9746 104.068 35.2871 104.068 34.4391C104.068 33.5911 104.406 32.9037 104.823 32.9037H105.836L106.595 22.3756H105.882C105.464 22.3756 105.126 21.6881 105.126 20.8402C105.126 20.3503 105.239 19.914 105.415 19.6328V19.177C105.415 18.5634 105.592 18.0339 105.848 17.788V16.5354C105.848 15.6874 106.186 15 106.603 15ZM49.5302 67.7327H140.102V65.1293H132.487C132.263 65.1293 132.051 64.9277 131.907 64.5789C131.764 64.2301 131.704 63.7699 131.743 63.3223L132.353 56.422H91.7846L92.4312 63.3059C92.4734 63.7554 92.4148 64.2198 92.2713 64.5725C92.1278 64.9251 91.9143 65.1293 91.6891 65.1293H49.5302V67.7327Z" stroke="#777777" stroke-width="2" stroke-linecap="round" stroke-linejoin="round"/>
</svg>
