<svg width="150" height="100" viewBox="0 0 150 100" fill="none" xmlns="http://www.w3.org/2000/svg">
<path fill-rule="evenodd" clip-rule="evenodd" d="M23.4507 37H87.4578C94.6038 37 100.397 42.793 100.397 49.939C100.397 57.085 94.6038 62.878 87.4578 62.878H23.4507C16.3047 62.878 10.5117 57.085 10.5117 49.939C10.5117 42.793 16.3047 37 23.4507 37ZM8.51172 49.939C8.51172 41.6884 15.2001 35 23.4507 35H87.4578C95.7083 35 102.397 41.6884 102.397 49.939C102.397 58.1896 95.7083 64.878 87.4578 64.878H23.4507C15.2001 64.878 8.51172 58.1896 8.51172 49.939ZM117.744 36.2196C118.538 36.6477 119.212 37.2407 119.897 37.9837C120.275 38.3941 120.523 38.4801 120.988 38.6418C121.161 38.7017 121.363 38.772 121.613 38.873C122.565 39.258 123.541 39.9353 124.748 41.7707C124.855 41.9338 124.912 42.1247 124.912 42.3199V59.4165H141.49C142.042 59.4165 142.49 59.8642 142.49 60.4165V78.2952C142.49 78.8475 142.042 79.2952 141.49 79.2952C140.938 79.2952 140.49 78.8475 140.49 78.2952C140.49 74.5015 137.509 72.2845 134.129 72.1541C130.79 72.0253 127.319 73.9777 126.575 78.459C126.495 78.9414 126.078 79.2952 125.588 79.2952H105.961H103.794C103.261 79.2952 102.821 78.8771 102.795 78.3447C102.666 75.7333 101.782 73.9502 100.617 72.8393C99.4484 71.7242 97.9221 71.2125 96.3659 71.2761C93.2629 71.4029 90.0443 73.8284 89.7024 78.3703C89.6631 78.8913 89.2295 79.2942 88.7071 79.2952C88.1846 79.2962 87.7495 78.8949 87.7083 78.3741C87.4955 75.6831 86.5429 73.9259 85.3439 72.8728C84.1398 71.8153 82.5946 71.3851 81.0386 71.5173C77.9004 71.7838 74.8898 74.3057 74.8898 78.2952C74.8898 78.8475 74.4421 79.2952 73.8898 79.2952H44.643C44.3631 79.2952 44.0959 79.1779 43.9066 78.9717C43.7172 78.7655 43.6229 78.4894 43.6466 78.2105C43.9669 74.4454 41.191 72.0135 38.0433 71.7459C36.4813 71.6131 34.8798 72.0289 33.5905 73.0707C32.3097 74.1057 31.261 75.821 30.9141 78.4271C30.8481 78.9234 30.4253 79.2943 29.9247 79.2952C29.4241 79.2961 28.9999 78.9267 28.9321 78.4308C28.3583 74.2367 25.1226 72.034 21.9428 71.9627C20.3516 71.927 18.8046 72.4279 17.6188 73.4591C16.4435 74.4812 15.5573 76.0813 15.3764 78.3739C15.3354 78.894 14.9013 79.2952 14.3795 79.2952H8.51172C7.95943 79.2952 7.51172 78.8475 7.51172 78.2952V68.1936C7.51172 67.6414 7.95943 67.1936 8.51172 67.1936H103.794C104.346 67.1936 104.794 67.6414 104.794 68.1936V77.2952H104.961V36.8314C104.961 36.3083 105.364 35.8736 105.886 35.8342C106.36 35.7984 106.815 35.7634 107.253 35.7298L107.256 35.7296L107.256 35.7296C110.887 35.4509 113.292 35.2663 115.053 35.4485C116.079 35.5546 116.943 35.7874 117.744 36.2196ZM106.961 77.2952H124.772C125.991 72.2612 130.228 70.0021 134.206 70.1556C136.556 70.2462 138.899 71.1928 140.49 72.9298V61.4165H123.912C123.36 61.4165 122.912 60.9688 122.912 60.4165V42.6248C121.974 41.2632 121.34 40.92 120.863 40.7272C120.764 40.6872 120.65 40.6486 120.523 40.6059C119.967 40.4186 119.175 40.1515 118.427 39.3395C117.821 38.683 117.319 38.2629 116.794 37.9798C116.277 37.7006 115.681 37.524 114.848 37.4379C113.278 37.2755 111.074 37.444 107.335 37.7296L106.961 37.7582V77.2952ZM102.794 72.2761V69.1936H9.51172V77.2952H13.4913C13.8575 74.9854 14.879 73.1912 16.3064 71.95C17.9076 70.5574 19.9542 69.9176 21.9876 69.9632C25.0814 70.0326 28.2145 71.6954 29.855 74.7988C30.4686 73.4276 31.3199 72.3342 32.3335 71.5152C34.0625 70.1179 36.1882 69.581 38.2127 69.7531C41.943 70.0702 45.5088 72.8491 45.6673 77.2952H72.9406C73.4123 72.7178 77.0966 69.8449 80.8693 69.5244C82.9026 69.3517 85.004 69.9124 86.6637 71.3701C87.5184 72.1208 88.2317 73.0877 88.7567 74.2707C90.2989 71.1568 93.2741 69.4007 96.2843 69.2778C98.3354 69.194 100.404 69.8714 101.998 71.3922C102.281 71.6626 102.547 71.9573 102.794 72.2761ZM25.5236 78.9022C25.5236 81.333 23.7564 82.9998 21.9352 82.9998C20.114 82.9998 18.3468 81.333 18.3468 78.9022C18.3468 76.4715 20.114 74.8047 21.9352 74.8047C23.7564 74.8047 25.5236 76.4715 25.5236 78.9022ZM27.5236 78.9022C27.5236 82.2698 25.0216 84.9998 21.9352 84.9998C18.8488 84.9998 16.3468 82.2698 16.3468 78.9022C16.3468 75.5347 18.8488 72.8047 21.9352 72.8047C25.0216 72.8047 27.5236 75.5347 27.5236 78.9022ZM37.57 82.9998C39.3912 82.9998 41.1584 81.333 41.1584 78.9022C41.1584 76.4715 39.3912 74.8047 37.57 74.8047C35.7488 74.8047 33.9816 76.4715 33.9816 78.9022C33.9816 81.333 35.7488 82.9998 37.57 82.9998ZM37.57 84.9998C40.6564 84.9998 43.1584 82.2698 43.1584 78.9022C43.1584 75.5347 40.6564 72.8047 37.57 72.8047C34.4836 72.8047 31.9816 75.5347 31.9816 78.9022C31.9816 82.2698 34.4836 84.9998 37.57 84.9998ZM81.1582 82.9998C82.9794 82.9998 84.7466 81.333 84.7466 78.9022C84.7466 76.4715 82.9794 74.8047 81.1582 74.8047C79.337 74.8047 77.5698 76.4715 77.5698 78.9022C77.5698 81.333 79.337 82.9998 81.1582 82.9998ZM81.1582 84.9998C84.2446 84.9998 86.7466 82.2698 86.7466 78.9022C86.7466 75.5347 84.2446 72.8047 81.1582 72.8047C78.0718 72.8047 75.5698 75.5347 75.5698 78.9022C75.5698 82.2698 78.0718 84.9998 81.1582 84.9998ZM96.2536 82.9998C98.0748 82.9998 99.8419 81.333 99.8419 78.9022C99.8419 76.4715 98.0748 74.8047 96.2536 74.8047C94.4323 74.8047 92.6652 76.4715 92.6652 78.9022C92.6652 81.333 94.4323 82.9998 96.2536 82.9998ZM96.2536 84.9998C99.3399 84.9998 101.842 82.2698 101.842 78.9022C101.842 75.5347 99.3399 72.8047 96.2536 72.8047C93.1672 72.8047 90.6652 75.5347 90.6652 78.9022C90.6652 82.2698 93.1672 84.9998 96.2536 84.9998ZM137.284 78.9022C137.284 81.333 135.517 82.9998 133.696 82.9998C131.874 82.9998 130.107 81.333 130.107 78.9022C130.107 76.4715 131.874 74.8047 133.696 74.8047C135.517 74.8047 137.284 76.4715 137.284 78.9022ZM139.284 78.9022C139.284 82.2698 136.782 84.9998 133.696 84.9998C130.609 84.9998 128.107 82.2698 128.107 78.9022C128.107 75.5347 130.609 72.8047 133.696 72.8047C136.782 72.8047 139.284 75.5347 139.284 78.9022Z" fill="#878787"/>
</svg>
