<svg width="100" height="100" viewBox="0 0 100 100" fill="none" xmlns="http://www.w3.org/2000/svg">
<rect x="10.4805" y="27.3984" width="79.0391" height="38.6786" rx="19.3393" stroke="#777777" stroke-width="2"/>
<path d="M23.0659 77.889C23.0659 81.4344 20.6821 84.0006 18.0896 84.0006C15.4972 84.0006 13.1133 81.4344 13.1133 77.889C13.1133 74.3436 15.4972 71.7773 18.0896 71.7773C20.6821 71.7773 23.0659 74.3436 23.0659 77.889Z" stroke="#777777" stroke-width="2"/>
<path d="M35.0152 77.889C35.0152 81.4344 32.6313 84.0006 30.0388 84.0006C27.4464 84.0006 25.0625 81.4344 25.0625 77.889C25.0625 74.3436 27.4464 71.7773 30.0388 71.7773C32.6313 71.7773 35.0152 74.3436 35.0152 77.889Z" stroke="#777777" stroke-width="2"/>
<path d="M76.0152 77.889C76.0152 81.4344 73.6313 84.0006 71.0388 84.0006C68.4464 84.0006 66.0625 81.4344 66.0625 77.889C66.0625 74.3436 68.4464 71.7773 71.0388 71.7773C73.6313 71.7773 76.0152 74.3436 76.0152 77.889Z" stroke="#777777" stroke-width="2"/>
<path d="M87.9683 77.889C87.9683 81.4344 85.5844 84.0006 82.992 84.0006C80.3995 84.0006 78.0156 81.4344 78.0156 77.889C78.0156 74.3436 80.3995 71.7773 82.992 71.7773C85.5844 71.7773 87.9683 74.3436 87.9683 77.889Z" stroke="#777777" stroke-width="2"/>
<rect x="10.4805" y="67.2246" width="79.0391" height="7.10291" fill="#FFFCFC" stroke="#777777" stroke-width="2"/>
<rect x="24.5625" y="20.3574" width="16.4509" height="2.12913" rx="1.06456" fill="#D9D9D9" stroke="#777777"/>
<rect x="56.8359" y="20.3574" width="16.4509" height="2.12913" rx="1.06456" fill="#D9D9D9" stroke="#777777"/>
<path d="M44.9736 45.0332C46.349 41.7621 49.1017 36.4992 49.9384 35.3613C51.0762 37.1392 55.8232 43.7531 56.2702 45.531C57.6471 51.007 53.8797 55.2028 50.1157 55.2028C46.6479 55.2028 42.9402 49.8691 44.9736 45.0332Z" stroke="#777777" stroke-width="2"/>
</svg>
