<svg width="7" height="5" viewBox="0 0 7 5" fill="none" xmlns="http://www.w3.org/2000/svg">
<path d="M6.31116 0.995855L3.49978 3.73635L0.688408 0.995855C0.638178 0.946792 0.570749 0.919325 0.500533 0.919325C0.430318 0.919325 0.362888 0.946792 0.312658 0.995855C0.288337 1.01968 0.269015 1.04813 0.255825 1.07952C0.242634 1.11091 0.23584 1.14462 0.23584 1.17867C0.23584 1.21272 0.242634 1.24642 0.255825 1.27782C0.269015 1.30921 0.288337 1.33765 0.312658 1.36148L3.30347 4.27748C3.35599 4.32867 3.42644 4.35733 3.49978 4.35733C3.57313 4.35733 3.64357 4.32867 3.6961 4.27748L6.68691 1.36204C6.7114 1.33819 6.73087 1.30968 6.74416 1.27819C6.75745 1.24669 6.7643 1.21285 6.7643 1.17867C6.7643 1.14448 6.75745 1.11064 6.74416 1.07915C6.73087 1.04765 6.7114 1.01914 6.68691 0.995292C6.63668 0.946229 6.56925 0.918762 6.49903 0.918762C6.42882 0.918762 6.36139 0.946229 6.31116 0.995292V0.995855Z" fill="white"/>
</svg>
