<svg width="634" height="200" viewBox="0 0 634 200" fill="none" xmlns="http://www.w3.org/2000/svg">
<g clip-path="url(#clip0_1541_10567)">
<path d="M86 32.6316L99.5 53L113 32.6316L99.5 10L86 32.6316Z" fill="white"/>
<path d="M73.7655 31.9273L51.2183 22.5069L51.3259 46.9427L75.1318 58.244L73.7655 31.9273Z" fill="white"/>
<path d="M41.5933 55.1546L17.2966 57.7611L29.1625 79.1228L55.4682 77.5583L41.5933 55.1546Z" fill="white"/>
<path d="M24.3635 87.5543L4.33185 101.549L25.0248 114.546L47.319 100.496L24.3635 87.5543Z" fill="white"/>
<path d="M28.31 123.035L17.607 145.002L42.0085 146.302L54.6617 123.186L28.31 123.035Z" fill="white"/>
<path d="M50.6992 152.525L50.0497 176.953L72.8003 168.035L74.7498 141.755L50.6992 152.525Z" fill="white"/>
<path d="M86.0697 169.715L99.6324 190.042L113.07 169.632L99.4999 147.042L86.0697 169.715Z" fill="white"/>
<path d="M125.909 166.592L148.303 176.371L148.586 151.936L124.963 140.256L125.909 166.592Z" fill="white"/>
<path d="M156.886 146.486L181.236 144.436L169.862 122.809L143.527 123.771L156.886 146.486Z" fill="white"/>
<path d="M168.587 114.369L189.763 102.175L170.283 87.4221L146.848 99.4739L168.587 114.369Z" fill="white"/>
<path d="M166.703 79.9726L179.759 59.3168L155.648 55.3392L140.528 76.9216L166.703 79.9726Z" fill="white"/>
<path d="M147.183 49.5238L148.682 25.1337L125.635 33.2554L122.773 59.4517L147.183 49.5238Z" fill="white"/>
<path d="M61.999 59.0434C68.3462 63.0476 73.0608 66.6636 74.7127 68.2772L66.8604 78.3819L63.2119 75.0893L60.1937 71.9418L58.308 69.7558L55.9201 66.7535C53.5322 63.7511 48.3223 56.3954 46 51.5059C48.5858 52.5415 55.6517 55.0392 61.999 59.0434Z" fill="#FFDF1A"/>
<path d="M43.674 82.9337C51.1508 83.5805 56.9988 84.6312 59.2068 85.3073L56.8641 97.8881L52.1117 96.6358L47.9861 95.2233L45.3077 94.1458L41.8088 92.5731C38.3098 91.0005 30.3063 86.8539 26 83.5742C28.7728 83.3085 36.1972 82.2869 43.674 82.9337Z" fill="#FFDF1A"/>
<path d="M41.1018 110.434C47.8601 107.171 53.4243 105.087 55.6679 104.54L60.0798 116.553L55.3545 117.904L51.0862 118.797L48.2332 119.238L44.4218 119.673C40.6104 120.109 31.6118 120.632 26.2344 120.012C28.4824 118.367 34.3435 113.696 41.1018 110.434Z" fill="#FFDF1A"/>
<path d="M53.4141 136.052C58.1554 130.234 62.3141 125.991 64.1154 124.546L73.1981 133.561L69.489 136.785L66.0002 139.401L63.6025 141.009L60.3338 143.017C57.0651 145.025 49.1342 149.309 44 151.023C45.3403 148.582 48.6728 141.869 53.4141 136.052Z" fill="#FFDF1A"/>
<path d="M79.7995 153.294C80.6388 145.836 81.8398 140.017 82.5726 137.827L95.0888 140.494L93.7145 145.212L92.1961 149.3L91.0499 151.95L89.3877 155.407C87.7254 158.864 83.374 166.758 79.9844 170.979C79.7902 168.2 78.9602 160.752 79.7995 153.294Z" fill="#FFDF1A"/>
<path d="M111.565 155.04C107.989 148.442 105.648 142.981 104.997 140.766L116.79 135.797L118.36 140.454L119.452 144.676L120.026 147.505L120.639 151.292C121.252 155.079 122.196 164.043 121.828 169.443C120.08 167.275 115.14 161.639 111.565 155.04Z" fill="#FFDF1A"/>
<path d="M137.816 141.474C131.636 137.216 127.072 133.412 125.487 131.732L133.743 121.954L137.255 125.392L140.143 128.66L141.938 130.92L144.202 134.017C146.467 137.114 151.374 144.675 153.496 149.654C150.954 148.515 143.996 145.732 137.816 141.474Z" fill="#FFDF1A"/>
<path d="M148.613 118.528C141.219 117.243 135.483 115.696 133.341 114.833L136.752 102.499L141.379 104.154L145.369 105.914L147.945 107.217L151.297 109.083C154.648 110.95 162.268 115.766 166.277 119.402C163.492 119.43 156.007 119.812 148.613 118.528Z" fill="#FFDF1A"/>
<path d="M151.968 92.2195C144.978 94.9507 139.27 96.5985 136.991 96.97L133.52 84.6527L138.335 83.6709L142.66 83.1103L145.538 82.8903L149.372 82.7508C153.206 82.6113 162.218 82.7848 167.531 83.8184C165.163 85.2845 158.959 89.4884 151.968 92.2195Z" fill="#FFDF1A"/>
<path d="M143.153 65.9944C138.347 71.7583 134.141 75.955 132.324 77.3798L123.343 68.2637L127.088 65.0812L130.605 62.5043L133.021 60.9233L136.312 58.9521C139.603 56.9809 147.581 52.7863 152.734 51.1289C151.367 53.5555 147.959 60.2305 143.153 65.9944Z" fill="#FFDF1A"/>
<path d="M119.247 49.5873C117.551 56.8978 115.685 62.5388 114.703 64.6292L102.58 60.533L104.491 56.0051L106.472 52.1203L107.917 49.621L109.968 46.3793C112.019 43.1375 117.254 35.7999 121.109 32C120.981 34.7825 120.944 42.2768 119.247 49.5873Z" fill="#FFDF1A"/>
<path d="M88.9555 45.4274C92.5153 52.0342 94.8441 57.5004 95.4897 59.7175L83.685 64.6585L82.1257 59.9978L81.044 55.7733L80.4761 52.9428L79.8721 49.1545C79.2681 45.3662 78.3459 36.3996 78.7266 31C80.4695 33.1728 85.3957 38.8207 88.9555 45.4274Z" fill="#FFDF1A"/>
<circle cx="97.5" cy="99.5" r="42.5" fill="#FFDF1A"/>
<path d="M76.7695 66.4375H101.391C106.203 66.4375 110.385 67.1536 113.938 68.5859C117.49 70.0182 120.225 72.138 122.145 74.9453C124.092 77.7526 125.066 81.2188 125.066 85.3438C125.066 88.9245 124.508 91.918 123.391 94.3242C122.273 96.7305 120.712 98.7214 118.707 100.297C116.73 101.844 114.424 103.118 111.789 104.121L106.848 106.914H86.1797L86.0938 95.2695H101.391C103.31 95.2695 104.9 94.9258 106.16 94.2383C107.421 93.5508 108.366 92.5768 108.996 91.3164C109.655 90.0273 109.984 88.4948 109.984 86.7188C109.984 84.9141 109.655 83.3672 108.996 82.0781C108.337 80.7891 107.363 79.8008 106.074 79.1133C104.814 78.4258 103.253 78.082 101.391 78.082H91.8516V129H76.7695V66.4375ZM111.016 129L97.1797 101.328L113.164 101.242L127.172 128.355V129H111.016Z" fill="black"/>
<path d="M233.667 96H215V21H257C275.667 21 275.667 38.5781 275.667 46.7812C274.5 56.1562 267.111 62.0156 261.667 63.1875L264.5 69.5L278 96H252.333L244.167 70.2188H233.667V96Z" fill="white"/>
<path d="M436 39.8557V21H396.173C383.845 21 381 31.5241 381 36.3477V81.5138C381 92.4764 392.854 96.2768 397.595 95.9845H436V77.1287H407.553C399.018 77.1287 401.387 72.3052 401.387 68.3586H431.259V48.6259H401.387C399.49 40.2066 404.074 39.2711 406.602 39.8557H436Z" fill="white"/>
<path d="M305 96H286V21H305V96Z" fill="white"/>
<path d="M558 92H539V17H558V92Z" fill="white"/>
<path d="M614 92H566V17H588.244V74.1429H614V92Z" fill="white"/>
<path d="M357.789 96H317.594V80.7661C325.632 80.3753 343.316 80.7661 349.747 80.7661C356.178 80.7661 355.489 73.7348 355.489 73.7348C355.489 73.7348 355.489 67.8754 349.747 67.8754H327.927C317.594 67.8754 312.991 52.6409 313 44.4371C312.99 30.3751 321.03 21 326.781 21H369.273V39.7496H338.266C332.521 39.7501 331.375 42.484 331.375 44.4371C331.372 50.2965 335.585 50.2965 337.117 50.2965H337.117H358.938C376.164 51.4684 372.719 64.3597 372.719 79.5936C372.719 90.1412 362.766 95.6094 357.789 96Z" fill="white"/>
<path d="M530.635 54.5C530.635 75.2107 514.383 92 494.335 92C474.287 92 458.035 75.2107 458.035 54.5C458.035 33.7893 474.287 17 494.335 17C514.383 17 530.635 33.7893 530.635 54.5ZM476.035 53.5C476.035 65.2083 483.002 77 494.335 77C505.669 77 511.965 68 513 55C513 42.5 505.669 32 494.335 32C483.002 32 476.035 43 476.035 53.5Z" fill="white"/>
<line x1="215" y1="115.5" x2="617" y2="115.5" stroke="white"/>
<path d="M234.709 156.836V165.941C234.416 166.375 233.912 166.855 233.197 167.383C232.482 167.91 231.521 168.373 230.314 168.771C229.107 169.158 227.607 169.352 225.814 169.352C224.314 169.352 222.938 169.082 221.684 168.543C220.43 168.004 219.34 167.225 218.414 166.205C217.5 165.174 216.791 163.938 216.287 162.496C215.795 161.055 215.549 159.438 215.549 157.645V154.551C215.549 152.793 215.777 151.211 216.234 149.805C216.691 148.387 217.354 147.174 218.221 146.166C219.088 145.158 220.131 144.391 221.35 143.863C222.58 143.324 223.957 143.055 225.48 143.055C227.379 143.055 228.979 143.383 230.279 144.039C231.58 144.695 232.594 145.598 233.32 146.746C234.059 147.883 234.516 149.172 234.691 150.613H232.529C232.365 149.594 232.025 148.656 231.51 147.801C230.994 146.934 230.244 146.236 229.26 145.709C228.287 145.182 227.027 144.918 225.48 144.918C224.238 144.918 223.131 145.146 222.158 145.604C221.197 146.061 220.389 146.711 219.732 147.555C219.076 148.398 218.578 149.412 218.238 150.596C217.898 151.768 217.729 153.074 217.729 154.516V157.645C217.729 159.145 217.916 160.498 218.291 161.705C218.678 162.912 219.229 163.949 219.943 164.816C220.658 165.684 221.514 166.352 222.51 166.82C223.506 167.277 224.613 167.506 225.832 167.506C227.133 167.506 228.24 167.383 229.154 167.137C230.068 166.891 230.801 166.598 231.352 166.258C231.914 165.906 232.318 165.578 232.564 165.273V158.682H225.691V156.836H234.709ZM312.484 143.406H320.798C322.568 143.406 324.103 143.693 325.404 144.268C326.704 144.842 327.706 145.691 328.41 146.816C329.124 147.93 329.482 149.301 329.482 150.93C329.482 152.137 329.224 153.232 328.708 154.217C328.204 155.201 327.507 156.027 326.617 156.695C325.726 157.352 324.695 157.803 323.523 158.049L322.767 158.33H313.89L313.855 156.484H321.29C322.626 156.484 323.74 156.227 324.63 155.711C325.521 155.195 326.189 154.516 326.634 153.672C327.091 152.816 327.32 151.902 327.32 150.93C327.32 149.77 327.068 148.768 326.564 147.924C326.072 147.068 325.339 146.412 324.367 145.955C323.394 145.498 322.204 145.27 320.798 145.27H314.646V169H312.484V143.406ZM328.286 169L321.66 157.557L323.98 157.539L330.589 168.771V169H328.286ZM425.96 154.832V157.574C425.96 159.367 425.725 160.99 425.257 162.443C424.8 163.885 424.132 165.121 423.253 166.152C422.385 167.184 421.342 167.975 420.124 168.525C418.905 169.076 417.534 169.352 416.01 169.352C414.522 169.352 413.163 169.076 411.932 168.525C410.714 167.975 409.665 167.184 408.786 166.152C407.907 165.121 407.227 163.885 406.747 162.443C406.266 160.99 406.026 159.367 406.026 157.574V154.832C406.026 153.039 406.26 151.422 406.729 149.98C407.21 148.527 407.889 147.285 408.768 146.254C409.647 145.223 410.696 144.432 411.915 143.881C413.134 143.33 414.487 143.055 415.975 143.055C417.499 143.055 418.87 143.33 420.089 143.881C421.307 144.432 422.356 145.223 423.235 146.254C424.114 147.285 424.788 148.527 425.257 149.98C425.725 151.422 425.96 153.039 425.96 154.832ZM423.815 157.574V154.797C423.815 153.285 423.639 151.926 423.288 150.719C422.948 149.512 422.438 148.48 421.759 147.625C421.091 146.77 420.27 146.113 419.298 145.656C418.325 145.199 417.217 144.971 415.975 144.971C414.768 144.971 413.684 145.199 412.723 145.656C411.762 146.113 410.942 146.77 410.262 147.625C409.594 148.48 409.079 149.512 408.716 150.719C408.364 151.926 408.188 153.285 408.188 154.797V157.574C408.188 159.098 408.364 160.469 408.716 161.688C409.079 162.895 409.6 163.932 410.28 164.799C410.96 165.654 411.78 166.311 412.741 166.768C413.714 167.225 414.803 167.453 416.01 167.453C417.264 167.453 418.372 167.225 419.333 166.768C420.294 166.311 421.108 165.654 421.776 164.799C422.444 163.932 422.948 162.895 423.288 161.688C423.639 160.469 423.815 159.098 423.815 157.574ZM518.518 143.406H520.68V160.738C520.68 162.66 520.275 164.26 519.467 165.537C518.658 166.814 517.568 167.77 516.197 168.402C514.838 169.035 513.332 169.352 511.68 169.352C509.981 169.352 508.451 169.035 507.092 168.402C505.732 167.77 504.654 166.814 503.857 165.537C503.072 164.26 502.68 162.66 502.68 160.738V143.406H504.824V160.738C504.824 162.227 505.117 163.475 505.703 164.482C506.289 165.49 507.098 166.246 508.129 166.75C509.16 167.254 510.344 167.506 511.68 167.506C513.004 167.506 514.182 167.254 515.213 166.75C516.244 166.246 517.053 165.49 517.639 164.482C518.225 163.475 518.518 162.227 518.518 160.738V143.406ZM607.103 158.576H599.808V156.73H607.103C608.626 156.73 609.863 156.484 610.812 155.992C611.773 155.488 612.47 154.809 612.904 153.953C613.349 153.098 613.572 152.137 613.572 151.07C613.572 150.027 613.349 149.066 612.904 148.188C612.47 147.309 611.773 146.605 610.812 146.078C609.863 145.539 608.626 145.27 607.103 145.27H600.564V169H598.402V143.406H607.103C608.978 143.406 610.554 143.729 611.831 144.373C613.121 145.018 614.093 145.914 614.749 147.062C615.406 148.211 615.734 149.535 615.734 151.035C615.734 152.605 615.406 153.959 614.749 155.096C614.093 156.221 613.126 157.082 611.849 157.68C610.572 158.277 608.99 158.576 607.103 158.576Z" fill="white"/>
<path d="M234 55.5V34H251C255.4 34 257.5 37.5 257.5 40.5V44.5V48.5C257 53.5 253.333 54.8333 251 55.5H234Z" fill="black"/>
</g>
<defs>
<clipPath id="clip0_1541_10567">
<rect width="634" height="200" fill="white"/>
</clipPath>
</defs>
</svg>
