<svg width="14" height="14" viewBox="0 0 14 14" fill="none" xmlns="http://www.w3.org/2000/svg">
<path d="M5.79444 3.9206C5.50804 3.9766 5.19444 4.1622 4.94804 4.5974C4.92209 4.6431 4.8874 4.68325 4.84593 4.71554C4.80447 4.74783 4.75706 4.77164 4.70639 4.7856C4.65573 4.79957 4.60281 4.80342 4.55066 4.79693C4.49851 4.79045 4.44814 4.77375 4.40244 4.7478C4.35674 4.72186 4.3166 4.68716 4.28431 4.6457C4.25202 4.60423 4.22821 4.55682 4.21425 4.50615C4.20028 4.45549 4.19643 4.40257 4.20291 4.35042C4.2094 4.29827 4.22609 4.2479 4.25204 4.2022C4.60484 3.5814 5.10644 3.2398 5.64084 3.1358C6.13808 3.0419 6.65235 3.1455 7.07444 3.4246C7.46164 3.6806 7.77444 4.099 7.78404 4.6006C7.79444 5.1246 7.47604 5.5974 6.88884 5.9446C6.49044 6.1798 6.33524 6.3398 6.26884 6.4462C6.21284 6.5358 6.20004 6.6174 6.20004 6.7998C6.20004 6.90589 6.1579 7.00763 6.08289 7.08265C6.00787 7.15766 5.90613 7.1998 5.80004 7.1998C5.69396 7.1998 5.59221 7.15766 5.5172 7.08265C5.44219 7.00763 5.40004 6.90589 5.40004 6.7998C5.40004 6.5822 5.41124 6.3118 5.58964 6.0238C5.75764 5.7542 6.04484 5.5142 6.48164 5.2558C6.90964 5.0022 6.98724 4.7614 6.98484 4.6174C6.98084 4.4518 6.87124 4.2494 6.63284 4.0918C6.38601 3.92851 6.08553 3.86715 5.79444 3.9206ZM6.00004 9.1998C6.15917 9.1998 6.31178 9.13659 6.42431 9.02407C6.53683 8.91155 6.60004 8.75893 6.60004 8.5998C6.60004 8.44067 6.53683 8.28806 6.42431 8.17554C6.31178 8.06302 6.15917 7.9998 6.00004 7.9998C5.84091 7.9998 5.6883 8.06302 5.57578 8.17554C5.46326 8.28806 5.40004 8.44067 5.40004 8.5998C5.40004 8.75893 5.46326 8.91155 5.57578 9.02407C5.6883 9.13659 5.84091 9.1998 6.00004 9.1998ZM5.80004 0.799805C4.89323 0.799593 4.00213 1.03652 3.21517 1.48708C2.42821 1.93763 1.77276 2.58615 1.31385 3.36827C0.85495 4.15039 0.608552 5.03891 0.599112 5.94567C0.589673 6.85244 0.81752 7.7459 1.26004 8.5374L0.624044 10.203C0.571107 10.3415 0.557679 10.4919 0.585257 10.6375C0.612836 10.7832 0.680337 10.9183 0.780229 11.0278C0.880122 11.1373 1.00848 11.2169 1.15098 11.2578C1.29348 11.2986 1.44452 11.299 1.58724 11.259L3.57684 10.7014C4.28163 11.0344 5.05228 11.2047 5.83176 11.1997C6.61125 11.1947 7.37964 11.0145 8.08009 10.6724C8.78053 10.3304 9.39512 9.83525 9.87839 9.22363C10.3617 8.61201 10.7012 7.89956 10.872 7.13899C11.0428 6.37843 11.0404 5.5892 10.865 4.82969C10.6896 4.07017 10.3456 3.35982 9.85865 2.75115C9.37166 2.14249 8.75406 1.6511 8.05154 1.31334C7.34902 0.975568 6.57955 0.800063 5.80004 0.799805ZM1.40004 5.9998C1.4004 5.04095 1.71397 4.10845 2.29304 3.3442C2.87211 2.57995 3.68498 2.02577 4.60798 1.766C5.53097 1.50622 6.51356 1.55506 7.40625 1.90508C8.29893 2.25511 9.05284 2.88716 9.55327 3.70508C10.0537 4.52299 10.2732 5.48198 10.1785 6.43614C10.0838 7.39031 9.67995 8.28741 9.02847 8.99096C8.37699 9.6945 7.51352 10.166 6.56944 10.3336C5.62535 10.5013 4.65234 10.356 3.79844 9.9198L3.65924 9.8478L1.37124 10.4886L2.14644 8.4598L2.04404 8.2918C1.62176 7.60197 1.39885 6.80863 1.40004 5.9998ZM8.17044 13.5998C7.42191 13.6006 6.68205 13.4395 6.00168 13.1274C5.3213 12.8153 4.71652 12.3597 4.22884 11.7918C4.68829 11.9163 5.16099 11.9853 5.63684 11.9974C6.37789 12.5208 7.26319 12.8012 8.17044 12.7998C8.89204 12.7998 9.57204 12.6262 10.172 12.3198L10.3112 12.2478L12.5992 12.8886L11.824 10.8598L11.9264 10.6918C12.3344 10.0246 12.5704 9.2406 12.5704 8.3998C12.5717 7.51145 12.3027 6.64372 11.7992 5.9118C11.7927 5.43588 11.7296 4.96243 11.6112 4.5014C12.1648 4.9888 12.608 5.58862 12.9113 6.26085C13.2147 6.93309 13.3712 7.66229 13.3704 8.3998C13.3704 9.3206 13.1304 10.1862 12.7096 10.9374L13.3464 12.603C13.3993 12.7414 13.4127 12.8917 13.3851 13.0373C13.3576 13.1828 13.2902 13.3178 13.1904 13.4273C13.0906 13.5368 12.9624 13.6164 12.82 13.6573C12.6776 13.6983 12.5267 13.6988 12.384 13.659L10.3936 13.1014C9.71924 13.4214 8.96484 13.5998 8.16964 13.5998H8.17044Z" fill="black"/>
</svg>
