<svg width="26" height="18" viewBox="0 0 26 18" fill="none" xmlns="http://www.w3.org/2000/svg">
<path d="M24.3292 5.19571C18.3371 -0.793102 8.59175 -0.793102 2.59967 5.19571C1.61904 6.17762 1.02929 7.48253 0.940443 8.86703C0.851593 10.2515 1.26971 11.621 2.11679 12.7201C2.29372 12.9458 2.53953 13.1075 2.81685 13.1808C3.09417 13.254 3.38784 13.2348 3.65322 13.126L8.84416 11.0529C9.04696 10.9705 9.22622 10.8392 9.366 10.6708C9.50577 10.5024 9.60172 10.3021 9.6453 10.0877L10.2928 6.85196C10.304 6.77851 10.3356 6.7097 10.3842 6.65344C10.4327 6.59717 10.4961 6.55573 10.5672 6.53387C12.4316 5.88494 14.4595 5.87721 16.3288 6.51193C16.3977 6.54048 16.4588 6.58533 16.5065 6.64265C16.5543 6.69997 16.5875 6.76803 16.6031 6.84099L17.2836 10.0986C17.3269 10.3118 17.423 10.5108 17.5629 10.6775C17.7028 10.8441 17.8822 10.9732 18.0847 11.0529L23.2756 13.126C23.5413 13.2329 23.8344 13.2512 24.1113 13.1781C24.3882 13.105 24.634 12.9443 24.8121 12.7201C25.6591 11.621 26.0773 10.2515 25.9884 8.86703C25.8996 7.48253 25.3098 6.17762 24.3292 5.19571ZM24.1097 12.1827C24.0531 12.2587 23.9722 12.3132 23.8804 12.3371C23.7886 12.361 23.6914 12.353 23.6049 12.3143L18.4139 10.2412C18.3458 10.2145 18.2851 10.1716 18.2373 10.1162C18.1895 10.0607 18.1559 9.99447 18.1396 9.92314L17.4591 6.65452C17.4154 6.43369 17.3143 6.22826 17.1659 6.05883C17.0176 5.88941 16.8273 5.76197 16.6141 5.68929C14.5578 4.98499 12.3247 4.98886 10.2708 5.70026C10.0591 5.77855 9.87051 5.90911 9.72277 6.07979C9.57502 6.25047 9.47287 6.45572 9.42581 6.67646L8.77831 9.92314C8.7669 9.99487 8.73645 10.0622 8.69012 10.1182C8.64379 10.1741 8.58329 10.2166 8.51492 10.2412L3.32398 12.3143C3.2374 12.353 3.14021 12.361 3.04843 12.3371C2.95666 12.3132 2.87578 12.2587 2.81916 12.1827C2.0993 11.255 1.74329 10.0966 1.81807 8.92501C1.89284 7.75347 2.39326 6.64959 3.22521 5.82092C5.94301 3.11092 9.62535 1.58899 13.4644 1.58899C17.3035 1.58899 20.9858 3.11092 23.7036 5.82092C24.5356 6.64959 25.036 7.75347 25.1108 8.92501C25.1856 10.0966 24.8296 11.255 24.1097 12.1827ZM23.561 16.932C23.561 17.0484 23.5147 17.16 23.4324 17.2423C23.3501 17.3245 23.2384 17.3708 23.122 17.3708H3.80686C3.69044 17.3708 3.57878 17.3245 3.49646 17.2423C3.41413 17.16 3.36788 17.0484 3.36788 16.932C3.36788 16.8157 3.41413 16.7041 3.49646 16.6218C3.57878 16.5395 3.69044 16.4933 3.80686 16.4933H23.122C23.2384 16.4933 23.3501 16.5395 23.4324 16.6218C23.5147 16.7041 23.561 16.8157 23.561 16.932Z" fill="white"/>
</svg>
