<svg width="22" height="25" viewBox="0 0 22 25" fill="none" xmlns="http://www.w3.org/2000/svg">
<path d="M17.1471 16.379C16.5561 16.3789 15.9725 16.5065 15.439 16.7524C14.9056 16.9983 14.4356 17.3564 14.0636 17.8004L8.32762 14.2415C8.60363 13.711 8.74739 13.1254 8.74739 12.5315C8.74739 11.9377 8.60363 11.352 8.32762 10.8215L14.0636 7.26263C14.7106 8.03611 15.6395 8.54049 16.6593 8.67206C17.6791 8.80363 18.7122 8.55238 19.5463 7.96999C20.3804 7.38759 20.9521 6.51831 21.1437 5.54086C21.3354 4.56341 21.1326 3.55208 20.5769 2.71481C20.0212 1.87754 19.155 1.27796 18.1562 1.03934C17.1574 0.800726 16.102 0.941207 15.2071 1.4319C14.3121 1.9226 13.6456 2.72622 13.3445 3.67754C13.0434 4.62885 13.1307 5.65556 13.5884 6.54657L7.85239 10.1055C7.33414 9.48862 6.63106 9.04209 5.83976 8.82726C5.04846 8.61244 4.20778 8.63986 3.43325 8.90576C2.65871 9.17166 1.98834 9.66299 1.51426 10.3122C1.04018 10.9615 0.785645 11.7367 0.785645 12.5315C0.785645 13.3263 1.04018 14.1016 1.51426 14.7508C1.98834 15.4001 2.65871 15.8914 3.43325 16.1573C4.20778 16.4232 5.04846 16.4506 5.83976 16.2358C6.63106 16.021 7.33414 15.5744 7.85239 14.9576L13.5884 18.5165C13.2038 19.2661 13.0824 20.1165 13.2426 20.9389C13.4028 21.7612 13.8359 22.5106 14.4763 23.0735C15.1166 23.6363 15.9292 23.982 16.791 24.058C17.6528 24.134 18.5167 23.9363 19.2518 23.4948C19.9869 23.0533 20.5531 22.392 20.8645 21.6113C21.176 20.8306 21.2158 19.973 20.9778 19.1684C20.7398 18.3639 20.2371 17.6563 19.5458 17.1529C18.8546 16.6496 18.0124 16.3779 17.1471 16.379ZM17.1471 1.84411C17.7591 1.84411 18.3574 2.01962 18.8663 2.34843C19.3752 2.67725 19.7718 3.14461 20.0061 3.69142C20.2403 4.23822 20.3016 4.83991 20.1822 5.42039C20.0628 6.00087 19.768 6.53408 19.3353 6.95259C18.9025 7.37109 18.3511 7.6561 17.7508 7.77156C17.1505 7.88703 16.5283 7.82777 15.9628 7.60127C15.3974 7.37478 14.9141 6.99123 14.5741 6.49912C14.234 6.00701 14.0525 5.42844 14.0525 4.83659C14.0554 4.0438 14.3824 3.28429 14.9621 2.7237C15.5418 2.16311 16.3273 1.84693 17.1471 1.84411ZM4.7689 15.524C4.15685 15.524 3.55856 15.3485 3.04966 15.0197C2.54077 14.6909 2.14413 14.2235 1.90991 13.6767C1.67569 13.1299 1.61441 12.5282 1.73381 11.9477C1.85322 11.3672 2.14794 10.834 2.58072 10.4155C3.0135 9.99702 3.5649 9.71201 4.16518 9.59655C4.76547 9.48108 5.38767 9.54034 5.95313 9.76684C6.51858 9.99333 7.00189 10.3769 7.34192 10.869C7.68195 11.3611 7.86344 11.9397 7.86344 12.5315C7.86053 13.3243 7.53356 14.0838 6.95385 14.6444C6.37414 15.205 5.58873 15.5212 4.7689 15.524ZM17.1471 23.2189C16.535 23.2189 15.9367 23.0434 15.4278 22.7146C14.9189 22.3858 14.5223 21.9184 14.2881 21.3716C14.0539 20.8248 13.9926 20.2231 14.112 19.6427C14.2314 19.0622 14.5261 18.529 14.9589 18.1105C15.3917 17.692 15.9431 17.4069 16.5434 17.2915C17.1436 17.176 17.7659 17.2353 18.3313 17.4618C18.8968 17.6883 19.3801 18.0718 19.7201 18.5639C20.0601 19.056 20.2416 19.6346 20.2416 20.2265C20.2387 21.0192 19.9117 21.7788 19.332 22.3393C18.7523 22.8999 17.9669 23.2161 17.1471 23.2189Z" fill="white"/>
</svg>
