<svg width="89" height="73" viewBox="0 0 89 73" fill="none" xmlns="http://www.w3.org/2000/svg">
<path d="M28.5 62L24 70H40H49H53.5H55.5H56.5H57.5C66.5 70 68 60 66.5 52C65 44 52.5 44 50 44C47.5 44 43 44 43.5 37C43.9 31.4 47.5 32 50 32H63.5L57.5 24H45C40.2 24 36.9615 29 36.5 32C36.1923 34 36.5 39.5279 36.5 44C36.5 48 39.5 53 46.5 53.5H56C60 53.5 60.5 62 56 62H28.5Z" stroke="#F9D119" stroke-width="4"/>
<g clip-path="url(#clip0_781_14160)">
<path d="M71.4974 30.5556C71.2666 30.2826 70.9899 29.9503 70.6788 29.5669C69.7347 28.4036 68.4774 26.7758 67.2222 24.9153C65.965 23.052 64.7222 20.9736 63.7967 18.9077C62.8654 16.8288 62.2891 14.8361 62.2891 13.1243C62.2891 8.03288 66.4059 3.91602 71.4974 3.91602C76.5889 3.91602 80.7057 8.03288 80.7057 13.1243C80.7057 14.8361 80.1294 16.8288 79.1981 18.9077C78.2726 20.9736 77.0298 23.052 75.7726 24.9153C74.5174 26.7758 73.2601 28.4036 72.316 29.5669C72.0049 29.9503 71.7282 30.2826 71.4974 30.5556ZM66.8516 13.1243C66.8516 15.6891 68.9326 17.7702 71.4974 17.7702C74.0622 17.7702 76.1432 15.6891 76.1432 13.1243C76.1432 10.5596 74.0622 8.47852 71.4974 8.47852C68.9326 8.47852 66.8516 10.5596 66.8516 13.1243Z" stroke="#D9D9D9" stroke-width="2"/>
</g>
<g clip-path="url(#clip1_781_14160)">
<rect width="35" height="35" transform="translate(0 38)" fill="white"/>
<path d="M17.4974 68.5556C17.2666 68.2826 16.9899 67.9503 16.6788 67.5669C15.7347 66.4036 14.4774 64.7758 13.2222 62.9153C11.965 61.052 10.7222 58.9736 9.79672 56.9077C8.86536 54.8288 8.28906 52.8361 8.28906 51.1243C8.28906 46.0329 12.4059 41.916 17.4974 41.916C22.5889 41.916 26.7057 46.0329 26.7057 51.1243C26.7057 52.8361 26.1294 54.8288 25.1981 56.9077C24.2726 58.9736 23.0298 61.052 21.7726 62.9153C20.5174 64.7758 19.2601 66.4036 18.316 67.5669C18.0049 67.9503 17.7282 68.2826 17.4974 68.5556ZM12.8516 51.1243C12.8516 53.6891 14.9326 55.7702 17.4974 55.7702C20.0622 55.7702 22.1432 53.6891 22.1432 51.1243C22.1432 48.5596 20.0622 46.4785 17.4974 46.4785C14.9326 46.4785 12.8516 48.5596 12.8516 51.1243Z" stroke="#D9D9D9" stroke-width="2"/>
</g>
<defs>
<clipPath id="clip0_781_14160">
<rect width="35" height="35" fill="white" transform="translate(54)"/>
</clipPath>
<clipPath id="clip1_781_14160">
<rect width="35" height="35" fill="white" transform="translate(0 38)"/>
</clipPath>
</defs>
</svg>
