<svg width="63" height="69" viewBox="0 0 63 69" fill="none" xmlns="http://www.w3.org/2000/svg">
<g clip-path="url(#clip0_781_14166)">
<path d="M35.5906 41.7148H36.2656H37.5906H48.4406H49.7656H50.4406H51.7656H53.5156C54.3361 41.7148 55.0156 42.3944 55.0156 43.2148V60.7148C55.0156 61.5353 54.3361 62.2148 53.5156 62.2148H32.5156C31.6952 62.2148 31.0156 61.5353 31.0156 60.7148V43.2148C31.0156 42.3944 31.6952 41.7148 32.5156 41.7148H34.2656H35.5906ZM37.5156 51.9648C37.5156 54.9944 39.9861 57.4648 43.0156 57.4648C46.0452 57.4648 48.5156 54.9944 48.5156 51.9648C48.5156 48.9353 46.0452 46.4648 43.0156 46.4648C39.9861 46.4648 37.5156 48.9353 37.5156 51.9648Z" stroke="#F9D119" stroke-width="4"/>
</g>
<path d="M22.5186 43.2156L22.0186 57.7156C14.0161 53.3154 8.35092 44.2157 6.51863 40.2158C-0.68137 22.2158 2.51601 12.2158 4.01863 12.2158C11.5217 11.2148 17.1853 8.88176 18.5186 7.71474C21.7186 1.71474 25.0217 1.2166 27.0186 2.71474C28.5217 4.71582 32.5218 9.7166 38.5186 10.7156C44.5218 10.7156 47.0218 12.2166 48.5186 14.2156V17.7148V22.2156H38.5186C31.7186 22.2156 28.6853 28.5489 28.0186 31.7156V38.2156C25.6186 38.2156 23.0217 40.2158 22.5186 43.2156Z" stroke="#D9D9D9" stroke-width="4"/>
<defs>
<clipPath id="clip0_781_14166">
<rect width="42" height="42" fill="white" transform="translate(20.0156 26.7148)"/>
</clipPath>
</defs>
</svg>
