<svg width="150" height="100" viewBox="0 0 150 100" fill="none" xmlns="http://www.w3.org/2000/svg">
<path fill-rule="evenodd" clip-rule="evenodd" d="M10.2812 32.9512H103.577V62.7308H10.2812V32.9512ZM8.28125 30.9512H10.2812H103.577H105.577V32.9512V62.7308V64.7308H103.577H10.2812H8.28125V62.7308V32.9512V30.9512ZM118.537 38.1654C118.208 37.7609 117.955 37.3733 117.699 36.9799C117.657 36.9167 117.616 36.8534 117.574 36.7898C117.196 36.2128 116.758 35.5755 116.036 35.0737C114.61 34.0821 112.358 33.805 107.871 34.1411C107.35 34.1802 106.946 34.615 106.946 35.1383V77.29H106.76V68.1858C106.76 67.6335 106.312 67.1858 105.76 67.1858H9.63503C9.08275 67.1858 8.63503 67.6335 8.63503 68.1858V78.29C8.63503 78.8423 9.08275 79.29 9.63503 79.29H15.5547C16.0763 79.29 16.5102 78.8892 16.5516 78.3693C16.7339 76.0787 17.6269 74.4785 18.8137 73.4552C20.0116 72.4223 21.5757 71.9198 23.1853 71.9556C26.4039 72.0272 29.6669 74.2369 30.2449 78.4267C30.3133 78.9222 30.7372 79.2909 31.2374 79.29C31.7376 79.2891 32.1601 78.9188 32.2267 78.423C32.5763 75.8185 33.6334 74.1029 34.9268 73.0666C36.2295 72.023 37.849 71.6056 39.4292 71.7388C42.6167 72.0075 45.412 74.4465 45.0896 78.2045C45.0656 78.4836 45.1598 78.7599 45.3492 78.9662C45.5386 79.1725 45.8058 79.29 46.0859 79.29H75.5914C76.1437 79.29 76.5914 78.8423 76.5914 78.29C76.5914 74.3064 79.6249 71.7777 82.8019 71.5101C84.3765 71.3775 85.9392 71.8094 87.1558 72.8688C88.3664 73.923 89.3265 75.6802 89.541 78.3695C89.5825 78.89 90.0175 79.291 90.5397 79.29C91.0619 79.289 91.4954 78.8864 91.5349 78.3657C91.8794 73.8291 95.1238 71.3961 98.2656 71.2689C99.8404 71.2051 101.384 71.7187 102.564 72.8354C103.74 73.9473 104.631 75.7302 104.761 78.3399C104.788 78.8721 105.227 79.29 105.76 79.29H107.946C107.962 79.29 107.978 79.2896 107.994 79.2888L126.95 78.374C127.222 78.3608 127.478 78.237 127.657 78.0311C127.836 77.8252 127.923 77.5551 127.898 77.2835C127.713 75.2767 128.369 73.8003 129.399 72.8017C130.452 71.7816 131.956 71.2038 133.522 71.1559C135.085 71.108 136.634 71.5909 137.779 72.5915C138.904 73.5747 139.714 75.1227 139.714 77.3751C139.714 77.9274 140.162 78.3751 140.714 78.3751C141.267 78.3751 141.714 77.9274 141.714 77.3751V60.4067C141.714 60.1415 141.609 59.8871 141.422 59.6996C141.234 59.512 140.98 59.4067 140.714 59.4067L128.747 59.4067V41.6982C128.747 41.2871 128.496 40.9179 128.113 40.7675C125.713 39.8237 123.487 39.0904 121.738 38.6464C120.866 38.4251 120.09 38.2697 119.459 38.2001C119.144 38.1653 118.842 38.1493 118.571 38.1634L118.537 38.1654ZM139.714 71.6954V61.4067L127.747 61.4067C127.482 61.4067 127.228 61.3013 127.04 61.1138C126.853 60.9263 126.747 60.6719 126.747 60.4067V42.3829C124.65 41.581 122.742 40.9648 121.246 40.5849C120.42 40.3752 119.743 40.2435 119.24 40.188C118.987 40.1602 118.801 40.1541 118.675 40.1607C118.621 40.1635 118.589 40.1681 118.573 40.1707C118.184 40.3456 117.724 40.2547 117.431 39.9395C116.788 39.2485 116.362 38.5939 116.022 38.0708C115.981 38.0076 115.941 37.9463 115.902 37.8871C115.532 37.3234 115.272 36.9787 114.894 36.7159C114.176 36.2164 112.783 35.8503 108.946 36.0737V77.2406L125.869 76.4238C125.917 74.3169 126.731 72.6022 128.007 71.3656C129.465 69.9521 131.467 69.2178 133.46 69.1568C135.455 69.0958 137.518 69.7071 139.095 71.0856C139.313 71.2756 139.519 71.4789 139.714 71.6954ZM104.76 72.2899V69.1858H10.635V77.29H14.6673C15.0369 74.977 16.0683 73.1816 17.5076 71.9405C19.1214 70.5491 21.1827 69.9106 23.2298 69.9561C26.3492 70.0255 29.5156 71.6916 31.168 74.8088C31.7878 73.4279 32.6498 72.3282 33.6763 71.5058C35.4187 70.1098 37.5594 69.5741 39.5972 69.7459C43.3498 70.0622 46.9511 72.8365 47.1105 77.29H74.6425C75.1182 72.7056 78.838 69.8369 82.6341 69.5172C84.6807 69.3448 86.7967 69.9041 88.4692 71.3605C89.3358 72.1151 90.0586 73.0887 90.5892 74.2813C92.1425 71.1535 95.1496 69.3934 98.1847 69.2705C100.249 69.1869 102.332 69.8626 103.939 71.3825C104.231 71.6594 104.506 71.962 104.76 72.2899ZM26.9167 78.8955C26.9167 81.2954 25.139 82.9918 23.2423 82.9918C21.3456 82.9918 19.5679 81.2954 19.5679 78.8955C19.5679 76.4956 21.3456 74.7991 23.2423 74.7991C25.139 74.7991 26.9167 76.4956 26.9167 78.8955ZM28.9167 78.8955C28.9167 82.2624 26.3762 84.9918 23.2423 84.9918C20.1084 84.9918 17.5679 82.2624 17.5679 78.8955C17.5679 75.5286 20.1084 72.7991 23.2423 72.7991C26.3762 72.7991 28.9167 75.5286 28.9167 78.8955ZM39.1439 82.9918C41.0406 82.9918 42.8184 81.2954 42.8184 78.8955C42.8184 76.4956 41.0406 74.7991 39.1439 74.7991C37.2473 74.7991 35.4695 76.4956 35.4695 78.8955C35.4695 81.2954 37.2473 82.9918 39.1439 82.9918ZM39.1439 84.9918C42.2778 84.9918 44.8184 82.2624 44.8184 78.8955C44.8184 75.5286 42.2778 72.7991 39.1439 72.7991C36.01 72.7991 33.4695 75.5286 33.4695 78.8955C33.4695 82.2624 36.01 84.9918 39.1439 84.9918ZM83.4079 82.9918C85.3046 82.9918 87.0823 81.2954 87.0823 78.8955C87.0823 76.4956 85.3046 74.7991 83.4079 74.7991C81.5113 74.7991 79.7335 76.4956 79.7335 78.8955C79.7335 81.2954 81.5113 82.9918 83.4079 82.9918ZM83.4079 84.9918C86.5418 84.9918 89.0823 82.2624 89.0823 78.8955C89.0823 75.5286 86.5418 72.7991 83.4079 72.7991C80.274 72.7991 77.7335 75.5286 77.7335 78.8955C77.7335 82.2624 80.274 84.9918 83.4079 84.9918ZM98.7256 83.0008C100.622 83.0008 102.4 81.3043 102.4 78.9045C102.4 76.5046 100.622 74.8081 98.7256 74.8081C96.8289 74.8081 95.0511 76.5046 95.0511 78.9045C95.0511 81.3043 96.8289 83.0008 98.7256 83.0008ZM98.7256 85.0008C101.859 85.0008 104.4 82.2714 104.4 78.9045C104.4 75.5375 101.859 72.8081 98.7256 72.8081C95.5917 72.8081 93.0511 75.5375 93.0511 78.9045C93.0511 82.2714 95.5917 85.0008 98.7256 85.0008ZM137.581 78.9045C137.581 81.3043 135.803 83.0008 133.907 83.0008C132.01 83.0008 130.232 81.3043 130.232 78.9045C130.232 76.5046 132.01 74.8081 133.907 74.8081C135.803 74.8081 137.581 76.5046 137.581 78.9045ZM139.581 78.9045C139.581 82.2714 137.041 85.0008 133.907 85.0008C130.773 85.0008 128.232 82.2714 128.232 78.9045C128.232 75.5375 130.773 72.8081 133.907 72.8081C137.041 72.8081 139.581 75.5375 139.581 78.9045Z" fill="#777777"/>
</svg>
