<svg width="19" height="14" viewBox="0 0 19 14" fill="none" xmlns="http://www.w3.org/2000/svg">
<path d="M17.6667 2.83301V11.1663C17.6667 11.7189 17.4472 12.2488 17.0565 12.6395C16.6658 13.0302 16.1359 13.2497 15.5833 13.2497H3.08333C2.5308 13.2497 2.00089 13.0302 1.61019 12.6395C1.21949 12.2488 1 11.7189 1 11.1663V2.83301" stroke="white" stroke-width="1.4" stroke-linecap="round" stroke-linejoin="round"/>
<path d="M17.6667 2.83333C17.6667 2.2808 17.4472 1.7509 17.0565 1.36019C16.6658 0.969494 16.1359 0.75 15.5833 0.75H3.08333C2.5308 0.75 2.00089 0.969494 1.61019 1.36019C1.21949 1.7509 1 2.2808 1 2.83333L8.22917 7.34722C8.56027 7.55417 8.94288 7.66389 9.33333 7.66389C9.72379 7.66389 10.1064 7.55417 10.4375 7.34722L17.6667 2.83333Z" stroke="white" stroke-width="1.4" stroke-linecap="round" stroke-linejoin="round"/>
</svg>
